<?xml version="1.0" encoding="utf-8"?>
<!-- Generator: Adobe Illustrator 25.3.1, SVG Export Plug-In . SVG Version: 6.00 Build 0)  -->
<svg version="1.1" id="Layer_1" xmlns="http://www.w3.org/2000/svg" xmlns:xlink="http://www.w3.org/1999/xlink" x="0px" y="0px"
	 viewBox="0 0 23.61 21.68" style="enable-background:new 0 0 23.61 21.68;" xml:space="preserve">
<style type="text/css">
	.st0{fill:#38383D;}
</style>
<path class="st0" d="M14.78,11.83c1.47-0.99,2.44-2.68,2.44-4.6c0-3.04-2.43-5.51-5.41-5.51S6.4,4.19,6.4,7.23
	c0,1.92,0.97,3.62,2.44,4.6c-4.06,0.58-6.53,3.81-6.53,8.75h1c0-3.79,1.8-7.85,6.87-7.85h1.44c0.06,0,0.13,0.01,0.19,0.01
	s0.13-0.01,0.19-0.01h1.45c5.06,0,6.86,4.05,6.86,7.85h1C21.31,15.64,18.84,12.4,14.78,11.83z M7.4,7.23c0-2.49,1.98-4.51,4.41-4.51
	s4.41,2.02,4.41,4.51c0,2.45-1.93,4.45-4.32,4.5h-0.19C9.33,11.68,7.4,9.68,7.4,7.23z"/>
</svg>
