<svg xmlns="http://www.w3.org/2000/svg" viewBox="0 0 1621.57 443.74"><defs><style>.a{fill:#38383d;}</style></defs><path class="a" d="M1365,258.79c0-39.63.18-79.27-.19-118.9-.06-6.43,1.86-8.91,7.87-10.72,59.75-18,120.4-22.85,181.52-9.68,32.66,7,59.21,23.54,66.19,60a84.79,84.79,0,0,1,1,15.63c.06,60.6-.12,121.2.23,181.79,0,7.82-2.08,9.83-9.73,9.64-21.3-.52-42.62-.55-63.92,0-7.66.2-9.07-2.31-9-9.41.29-59.29.19-118.58.15-177.86,0-20.11-6.94-30.29-25.88-36.78-20.25-6.95-40.66-5.08-61,0-6.61,1.66-5.09,6.57-5.1,10.91,0,67.15-.24,134.3.23,201.45.07,9.65-2.49,12-11.88,11.68-20.63-.75-41.31-.52-62-.07-7,.16-8.68-2.12-8.63-8.86C1365.1,338.06,1365,298.43,1365,258.79Zm-155.67-95.12c58.3,57,48.44,144.6-21.15,187.61-11.12,6.88-11.12,6.88-16.52-5.07-6.25-13.82-6.09-13.51-19.85-6-38.46,21.07-79,36.41-122.54,43.2-11.08,1.73-22.29,2.69-35,4.18,22.16,21.13,46,36,73.39,45.26,107.9,36.35,223.46-26.86,250-137.23,12.27-51,4.95-99.31-21.53-144.65-2-3.39-3.85-6.47-8.89-6.27-27.86,1.13-54.89,6.7-81.53,13.87C1205.7,161.75,1208,162.37,1209.28,163.67Zm-154.44,177.1c-27.26,7.5-54.37,13.08-82.35,13.9-4.25.12-6.34-1.73-8.45-5.11-52.1-83.6-27.93-200.28,53.32-256.87,77.24-53.79,175.51-47.38,245,16,.9.81,2.22,1.5,1.52,3.74a344.4,344.4,0,0,0-106.2,23.76c-19.17,7.63-38.16,15.73-55.63,26.76-6.74,4.26-8.85,2.53-11.54-4.11-7.43-18.27-7.72-18.15-23.16-7.93-66.72,44.18-73.59,132.75-14.52,186.9A19.69,19.69,0,0,1,1054.84,340.77ZM609.7,377c-.09,8,2.41,9.72,9.89,9.55,21-.48,42-.59,62.92,0,8.4.24,10.1-2.46,10.06-10.41-.33-67.79-.08-135.58-.36-203.37,0-7,2.17-9.81,8.84-11.13a112,112,0,0,1,51.55,2.2c5.49,1.48,7.92,1.06,9.49-5.13a365,365,0,0,1,11.26-36.47c2.39-6.51.93-8.69-5.61-9-50.61-2-100.89-1.28-149.63,15.31-6.27,2.14-8.47,4.76-8.4,11.59.4,39.3.19,78.6.19,117.89C609.9,297.76,610.15,337.39,609.7,377Zm200.84,1.25c0,6.3,1.53,8.4,8.1,8.28,22-.4,43.92-.54,65.86.06,7.85.21,8.9-2.62,8.88-9.51q-.35-123.76.07-247.53c0-7.8-2.56-10.26-9.63-10.54-21.28-.85-42.56-1.59-63.8-3.09-8.25-.59-9.56,2.56-9.5,9.89.32,41.58.15,83.16.15,124.75C810.67,293.13,810.8,335.7,810.54,378.26ZM850,79.83a45.73,45.73,0,0,1-20.52-4.45c-13.21-6.3-22.95-15.34-23-31.22s9.78-25.8,23.17-31C849.43,5.49,868.87,6.46,886,21c14.59,12.35,15.28,32.39,1.45,45.61C878.54,75.09,865.61,79.86,850,79.83ZM564.79,376.54c.05,7.1-1,10.15-9.3,10.18-43.26.15-86.52,1.06-129.78,1.62-21.9.28-43-3.4-62.92-12.94-30.67-14.67-51-38.5-61.05-70.57-12-38.31-9.76-76.69,5.89-113.29,18.33-42.88,53.59-65.69,98.29-74.36,49.89-9.68,99.06-4.11,147.78,8.72,8.88,2.34,11.34,6.7,11.2,15.83-.6,39-.26,77.94-.26,116.91C564.64,297.94,564.49,337.24,564.79,376.54Zm-82.72-43.36c-.13-27.18-.06-54.36-.06-81.54s0-54.37,0-81.55c0-3.87.53-7.3-4.38-9.57-35.46-16.4-78.26,2.71-90,39.94-8.87,28.12-10,56.66-5.34,85.4,3.13,19.31,9.44,37.64,26.7,49.49,21.3,14.63,44.39,13.31,67.95,6.87C481.93,340.85,482.09,337.41,482.07,333.18Zm-231.8-14.73c-16.77,32.5-43.74,53.27-78.5,61.93-55.26,13.79-110.33,11.31-164.36-8C1.25,370.22,0,367,0,360.94.26,302,.17,243,.17,184.08.17,125.45.3,66.83,0,8.2,0,1,1.56-1.33,9.12-1.15c21.62.54,43.27.49,64.9,0,7.1-.15,8.65,2.19,8.59,8.9-.32,35.7,0,71.4-.28,107.1,0,6.73,1.13,8.1,8.07,6.06,32.43-9.57,65.41-11.85,97.56,0,46.76,17.16,71.06,53,77.39,101.1C269.73,255.32,266,288,250.27,318.45Zm-69.41-98.94c-8.46-55.94-43.32-72-90.91-59.61C85.72,161,82.3,162,82.33,168c.22,54.94.14,109.88.11,164.82,0,3,.14,5.34,3.64,7,25.92,12.55,65.09,1,80.26-23.4C179.71,295,182.22,271.2,183,246.89,183.41,237.66,182.23,228.55,180.86,219.51Z"/></svg>