<?xml version="1.0" encoding="utf-8"?>
<!-- Generator: Adobe Illustrator 26.0.1, SVG Export Plug-In . SVG Version: 6.00 Build 0)  -->
<svg version="1.1" id="Layer_1" xmlns="http://www.w3.org/2000/svg" xmlns:xlink="http://www.w3.org/1999/xlink" x="0px" y="0px"
	 viewBox="0 0 23.6 21.7" style="enable-background:new 0 0 23.6 21.7;" xml:space="preserve">
<style type="text/css">
	.st0{fill:#38383D;}
</style>
<path class="st0" d="M17,5.6V4.3C17,1.9,15.1,0,12.7,0h-1.9c0,0,0,0,0,0c-1.1,0-2.2,0.4-3,1.2C7,2,6.6,3.1,6.6,4.3v1.3H2.8v16.1
	h17.9V5.6H17z M7.7,4.3C7.7,3.4,8,2.6,8.6,2c0.6-0.6,1.4-0.9,2.2-0.9h1.9c1.7,0,3.2,1.4,3.2,3.2v1.3H7.7V4.3z M6.6,6.7V8h1.1V6.7
	h8.2V8H17V6.7h2.6v8.2H4V6.7H6.6z M4,20.5v-4.5h15.7v4.5H4z"/>
</svg>
