<?xml version="1.0" encoding="utf-8"?>
<!-- Generator: Adobe Illustrator 26.0.0, SVG Export Plug-In . SVG Version: 6.00 Build 0)  -->
<svg version="1.1" xmlns="http://www.w3.org/2000/svg" xmlns:xlink="http://www.w3.org/1999/xlink" x="0px" y="0px"
	 viewBox="0 0 50 50" style="enable-background:new 0 0 50 50;" xml:space="preserve">
<style type="text/css">
	.st0{fill:none;stroke:#c96f46;stroke-width:0.4321;stroke-miterlimit:10;}
	.st1{fill:#c96f46;}
	.st2{fill:none;stroke:#c96f46;stroke-width:0.75;stroke-miterlimit:10;}
	.st3{fill:none;stroke:#c96f46;stroke-width:2;stroke-miterlimit:10;}
	.st4{fill-rule:evenodd;clip-rule:evenodd;fill:#c96f46;}
	.st5{fill:#002338;}
</style>
<g id="BACKGROUND">
</g>
<g id="OBJECTS">
	<g>
		<g>
			<path id="XMLID_693_" class="st0" d="M-270,116.75L-270,116.75c-12.83,0-23.23-10.4-23.23-23.23l0,0
				c0-12.83,10.4-23.23,23.23-23.23l0,0c12.83,0,23.23,10.4,23.23,23.23l0,0C-246.77,106.35-257.17,116.75-270,116.75z"/>
		</g>
		<path id="XMLID_670_" class="st1" d="M-280.98,101.35c1.99,1.28,4.36,2.02,6.9,2.02c8.36,0,13.08-7.06,12.8-13.4
			c0.88-0.63,1.64-1.43,2.25-2.33c-0.81,0.36-1.68,0.6-2.59,0.71c0.93-0.56,1.64-1.44,1.98-2.49c-0.87,0.52-1.83,0.89-2.86,1.09
			c-0.82-0.88-1.99-1.42-3.29-1.42c-2.91,0-5.04,2.71-4.39,5.53c-3.74-0.19-7.06-1.98-9.28-4.71c-1.18,2.02-0.61,4.67,1.39,6.01
			c-0.74-0.02-1.43-0.23-2.04-0.56c-0.05,2.09,1.45,4.04,3.61,4.47c-0.63,0.17-1.33,0.21-2.03,0.08c0.57,1.79,2.24,3.09,4.21,3.13
			C-276.2,100.97-278.59,101.64-280.98,101.35z"/>
	</g>
	<g>
		<g>
			<path id="XMLID_691_" class="st0" d="M-112.96-38L-112.96-38c-12.83,0-23.23-10.4-23.23-23.23l0,0
				c0-12.83,10.4-23.23,23.23-23.23l0,0c12.83,0,23.23,10.4,23.23,23.23l0,0C-89.72-48.4-100.12-38-112.96-38z"/>
		</g>
		<path id="XMLID_660_" class="st1" d="M-112.96-73.28c-6.65,0-12.04,5.39-12.04,12.04c0,6.65,5.39,12.04,12.04,12.04
			c6.65,0,12.04-5.39,12.04-12.04C-100.91-67.89-106.3-73.28-112.96-73.28z M-107.42-55.88c-0.24,0.36-0.66,0.48-1.02,0.24
			c-2.83-1.75-6.38-2.11-10.6-1.14c-0.42,0.12-0.78-0.18-0.9-0.54c-0.12-0.42,0.18-0.78,0.54-0.9c4.58-1.02,8.55-0.6,11.68,1.32
			C-107.29-56.72-107.23-56.24-107.42-55.88z M-105.97-59.19c-0.3,0.42-0.84,0.6-1.26,0.3c-3.25-1.99-8.19-2.59-11.98-1.39
			c-0.48,0.12-1.02-0.12-1.14-0.6c-0.12-0.48,0.12-1.02,0.6-1.14c4.4-1.32,9.82-0.66,13.55,1.63
			C-105.85-60.21-105.67-59.61-105.97-59.19z M-105.85-62.56c-3.85-2.29-10.3-2.53-13.97-1.39c-0.6,0.18-1.2-0.18-1.39-0.72
			c-0.18-0.6,0.18-1.2,0.72-1.39c4.28-1.26,11.32-1.02,15.78,1.63c0.54,0.3,0.72,1.02,0.42,1.57
			C-104.58-62.44-105.31-62.26-105.85-62.56z"/>
	</g>
	<g>
		<path id="XMLID_699_" class="st2" d="M-270,39.37L-270,39.37c-12.83,0-23.23-10.4-23.23-23.23l0,0c0-12.83,10.4-23.23,23.23-23.23
			l0,0c12.83,0,23.23,10.4,23.23,23.23l0,0C-246.77,28.97-257.17,39.37-270,39.37z"/>
		<path id="XMLID_659_" class="st1" d="M-273.14,28.59h5.01V16.04h3.5l0.37-4.2h-3.87c0,0,0-1.57,0-2.39c0-0.99,0.2-1.38,1.16-1.38
			c0.77,0,2.71,0,2.71,0V3.69c0,0-2.86,0-3.47,0c-3.73,0-5.41,1.64-5.41,4.79c0,2.74,0,3.35,0,3.35h-2.61v4.26h2.61V28.59z"/>
	</g>
	<g>
		<g>
			<path id="XMLID_696_" class="st2" d="M-427.05,116.75L-427.05,116.75c-12.83,0-23.23-10.4-23.23-23.23l0,0
				c0-12.83,10.4-23.23,23.23-23.23l0,0c12.83,0,23.23,10.4,23.23,23.23l0,0C-403.81,106.35-414.21,116.75-427.05,116.75z"/>
		</g>
		<g id="XMLID_649_">
			<path id="XMLID_656_" class="st1" d="M-427.05,84.26c3.02,0,3.37,0.01,4.56,0.07c1.1,0.05,1.7,0.23,2.1,0.39
				c0.53,0.2,0.9,0.45,1.3,0.84c0.4,0.4,0.64,0.77,0.84,1.3c0.15,0.4,0.34,1,0.39,2.1c0.05,1.19,0.07,1.55,0.07,4.56
				c0,3.02-0.01,3.37-0.07,4.56c-0.05,1.1-0.23,1.7-0.39,2.1c-0.2,0.53-0.45,0.9-0.84,1.3c-0.4,0.4-0.77,0.64-1.3,0.84
				c-0.4,0.15-1,0.34-2.1,0.39c-1.19,0.05-1.55,0.07-4.56,0.07c-3.02,0-3.37-0.01-4.56-0.07c-1.1-0.05-1.7-0.23-2.1-0.39
				c-0.53-0.2-0.9-0.45-1.3-0.84c-0.4-0.4-0.64-0.77-0.84-1.3c-0.15-0.4-0.34-1-0.39-2.1c-0.05-1.19-0.07-1.55-0.07-4.56
				c0-3.02,0.01-3.37,0.07-4.56c0.05-1.1,0.23-1.7,0.39-2.1c0.2-0.53,0.45-0.9,0.84-1.3c0.4-0.4,0.77-0.64,1.3-0.84
				c0.4-0.15,1-0.34,2.1-0.39C-430.42,84.27-430.06,84.26-427.05,84.26 M-427.05,82.23c-3.07,0-3.45,0.01-4.66,0.07
				c-1.2,0.05-2.02,0.25-2.74,0.53c-0.74,0.29-1.37,0.67-2,1.3c-0.63,0.63-1.01,1.26-1.3,2c-0.28,0.72-0.47,1.54-0.52,2.74
				c-0.06,1.2-0.07,1.59-0.07,4.66s0.01,3.45,0.07,4.66c0.05,1.2,0.25,2.02,0.52,2.74c0.29,0.74,0.67,1.37,1.3,2
				c0.63,0.63,1.26,1.01,2,1.3c0.72,0.28,1.54,0.47,2.74,0.53c1.2,0.05,1.59,0.07,4.66,0.07c3.07,0,3.45-0.01,4.66-0.07
				c1.2-0.05,2.02-0.25,2.74-0.53c0.74-0.29,1.37-0.67,2-1.3c0.63-0.63,1.01-1.26,1.3-2c0.28-0.72,0.47-1.54,0.52-2.74
				c0.05-1.2,0.07-1.59,0.07-4.66s-0.01-3.45-0.07-4.66c-0.05-1.2-0.25-2.02-0.52-2.74c-0.29-0.74-0.67-1.37-1.3-2
				c-0.63-0.63-1.26-1.01-2-1.3c-0.72-0.28-1.54-0.47-2.74-0.53C-423.59,82.24-423.98,82.23-427.05,82.23"/>
			<path id="XMLID_653_" class="st1" d="M-427.05,87.72c-3.2,0-5.8,2.6-5.8,5.8s2.6,5.8,5.8,5.8c3.2,0,5.8-2.6,5.8-5.8
				S-423.84,87.72-427.05,87.72 M-427.05,97.28c-2.08,0-3.76-1.69-3.76-3.76c0-2.08,1.69-3.76,3.76-3.76c2.08,0,3.76,1.69,3.76,3.76
				C-423.28,95.6-424.97,97.28-427.05,97.28"/>
			<path id="XMLID_652_" class="st1" d="M-419.66,87.49c0,0.75-0.61,1.36-1.36,1.36c-0.75,0-1.36-0.61-1.36-1.36
				c0-0.75,0.61-1.36,1.36-1.36C-420.27,86.14-419.66,86.74-419.66,87.49"/>
		</g>
	</g>
	<g>
		<path id="XMLID_698_" class="st3" d="M-604.23,48.17L-604.23,48.17c-12.83,0-23.23-10.4-23.23-23.23l0,0
			c0-12.83,10.4-23.23,23.23-23.23l0,0C-591.4,1.7-581,12.1-581,24.94l0,0C-581,37.77-591.4,48.17-604.23,48.17z"/>
		<path id="XMLID_646_" class="st1" d="M-610.82,26.85c0.32,0.13,0.61,0.01,0.7-0.35c0.06-0.25,0.22-0.87,0.29-1.13
			c0.09-0.35,0.06-0.48-0.2-0.78c-0.57-0.67-0.93-1.53-0.93-2.76c0-3.55,2.66-6.73,6.92-6.73c3.77,0,5.85,2.31,5.85,5.39
			c0,4.05-1.79,7.47-4.46,7.47c-1.47,0-2.57-1.22-2.22-2.71c0.42-1.78,1.24-3.7,1.24-4.99c0-1.15-0.62-2.11-1.9-2.11
			c-1.5,0-2.71,1.55-2.71,3.64c0,1.33,0.45,2.22,0.45,2.22s-1.54,6.52-1.81,7.66c-0.54,2.27-0.08,5.06-0.04,5.34
			c0.02,0.17,0.24,0.21,0.33,0.08c0.14-0.18,1.93-2.39,2.54-4.6c0.17-0.62,0.99-3.86,0.99-3.86c0.49,0.93,1.92,1.75,3.43,1.75
			c4.52,0,7.58-4.12,7.58-9.63c0-4.17-3.53-8.05-8.9-8.05c-6.68,0-10.04,4.79-10.04,8.78C-613.7,23.9-612.79,26.05-610.82,26.85z"/>
	</g>
	<g>
		<g>
			<path id="XMLID_690_" class="st0" d="M-191.48,116.75L-191.48,116.75c-12.83,0-23.23-10.4-23.23-23.23l0,0
				c0-12.83,10.4-23.23,23.23-23.23l0,0c12.83,0,23.23,10.4,23.23,23.23l0,0C-168.25,106.35-178.65,116.75-191.48,116.75z"/>
		</g>
		<path id="XMLID_615_" class="st4" d="M-179.54,99.06L-179.54,99.06c-0.01-0.01-0.01-0.01-0.02-0.02c0,0,0,0-0.01,0l0,0
			c-0.29-0.18-0.59-0.21-0.77-0.28c-0.01,0-0.01,0-0.01-0.01c-1.26-0.4-2.36-1.26-3.17-2.31c-0.45-0.59-0.83-1.22-1.09-1.9
			c0-0.01,0-0.01,0-0.01c-0.1-0.29-0.11-0.62,0.04-0.81c0,0,0.01,0,0.01-0.01c0.23-0.32,0.65-0.53,1.09-0.69c0.01,0,0.01,0,0.01,0
			c0.5-0.17,1.04-0.37,1.48-0.76c0.01,0,0.01-0.01,0.01-0.01c0.07-0.06,0.15-0.15,0.21-0.27c0.01-0.03,0.03-0.06,0.03-0.1
			c0.03-0.12,0.03-0.26-0.03-0.39c0-0.01,0-0.01,0-0.01c-0.13-0.26-0.35-0.4-0.51-0.49h-0.01c-0.27-0.16-0.6-0.17-0.88-0.08l0,0
			h-0.01c-0.3,0.09-0.55,0.2-0.78,0.23c-0.01,0-0.01,0-0.02,0.01c-0.32,0.06-0.64,0.07-0.89-0.02c-0.01-0.03-0.01-0.11-0.02-0.2
			h0.01c-0.02-0.54,0.03-1.09,0.03-1.67c0,0,0,0,0-0.01c0.03-0.87,0.06-1.77-0.07-2.68c0-0.01,0-0.01,0-0.01
			c-0.29-1.53-1.26-2.84-2.51-3.72c-0.9-0.64-1.98-0.99-3.07-1.09l0,0c-0.38-0.03-0.74-0.04-1.1-0.04c-1.47,0.01-3,0.4-4.19,1.33
			c-0.9,0.7-1.6,1.63-2.04,2.66v0.01c-0.43,1.06-0.39,2.2-0.33,3.25l0,0c0.03,0.74,0.12,1.46,0.05,2.14
			c-0.01,0.02-0.01,0.03-0.01,0.04c-0.33,0.06-0.69,0.04-1.05-0.03h-0.01c-0.25-0.04-0.51-0.14-0.81-0.22c-0.01,0-0.01,0-0.02-0.01
			c-0.29-0.06-0.57,0.02-0.78,0.18c-0.01,0-0.01,0-0.01,0.01c-0.01,0.01-0.01,0.01-0.01,0.01c-0.18,0.11-0.42,0.31-0.43,0.64
			c-0.01,0.02,0,0.04,0,0.06c0.01,0,0,0.01,0.01,0.01c0.03,0.2,0.16,0.34,0.27,0.44c0.11,0.1,0.21,0.16,0.27,0.21
			c0.01,0,0.01,0.01,0.02,0.01c0.54,0.36,1.13,0.51,1.65,0.72l0,0c0.36,0.16,0.67,0.4,0.74,0.71c0.09,0.39-0.08,0.83-0.29,1.27v0.01
			c-0.58,1.14-1.44,2.14-2.51,2.87c-0.56,0.38-1.19,0.67-1.84,0.84c-0.01,0-0.02,0.01-0.03,0.01c-0.13,0.05-0.45,0.08-0.65,0.38
			c-0.01,0.02-0.02,0.04-0.03,0.07c-0.07,0.19,0.01,0.4,0.11,0.51c0.09,0.11,0.19,0.17,0.28,0.22c0.01,0,0.01,0.01,0.02,0.01
			c0.55,0.32,1.15,0.45,1.7,0.59c0.01,0,0.01,0.01,0.01,0.01c0.4,0.08,0.77,0.13,1.06,0.26c0.01,0.02,0.04,0.12,0.11,0.29
			c0.1,0.3,0.15,0.65,0.26,1.03c0.03,0.1,0.12,0.18,0.23,0.21c0.25,0.06,0.39-0.03,0.41-0.03c0.01,0,0.02,0,0.03,0
			c0.92-0.16,1.84-0.3,2.69-0.1l0,0c0.88,0.24,1.66,0.85,2.52,1.37v0.01l0,0c0.58,0.36,1.24,0.71,2.02,0.74l0,0c0,0,0,0,0.01,0
			c0.58,0.03,1.15-0.01,1.71-0.04c0.01,0,0.01,0,0.01,0c0.48-0.04,0.93-0.21,1.34-0.46c0.01-0.01,0.01-0.01,0.02-0.01
			c0.91-0.52,1.72-1.14,2.61-1.53h0.01c0.29-0.1,0.65-0.1,1.05-0.12c0.01,0,0.01,0,0.01,0c0.74-0.02,1.47,0.02,2.21,0.11
			c0.02,0.01,0.05,0.01,0.07,0c0.1-0.01,0.2-0.08,0.25-0.14c0.06-0.06,0.07-0.12,0.08-0.16c0.02-0.07,0.04-0.11,0.01-0.04
			c0.01-0.02,0.02-0.04,0.03-0.06c0.13-0.44,0.21-0.84,0.43-1.09c0.1-0.1,0.26-0.14,0.45-0.14c0.01,0,0.03,0,0.04,0
			c0.64-0.07,1.21-0.3,1.75-0.49c0.01-0.01,0.02-0.01,0.02-0.01c0.2-0.09,0.5-0.19,0.71-0.48c0,0,0,0,0-0.01l0,0
			C-179.22,99.54-179.3,99.21-179.54,99.06L-179.54,99.06z"/>
	</g>
	<g>
		<path id="XMLID_697_" class="st0" d="M-191.48-38L-191.48-38c-12.83,0-23.23-10.4-23.23-23.23l0,0c0-12.83,10.4-23.23,23.23-23.23
			l0,0c12.83,0,23.23,10.4,23.23,23.23l0,0C-168.25-48.4-178.65-38-191.48-38z"/>
		<path id="XMLID_614_" class="st1" d="M-183.2-71.34c-3.24-0.1-5.43,1.72-6.58,5.49c0.59-0.25,1.17-0.38,1.73-0.38
			c1.19,0,1.71,0.67,1.57,2c-0.07,0.81-0.59,1.98-1.57,3.53c-0.98,1.55-1.71,2.32-2.2,2.32c-0.63,0-1.21-1.19-1.73-3.57
			c-0.18-0.7-0.49-2.49-0.95-5.36c-0.42-2.66-1.54-3.91-3.36-3.73c-0.77,0.07-1.92,0.77-3.46,2.1c-1.12,1.01-2.26,2.03-3.41,3.04
			l1.1,1.42c1.05-0.73,1.66-1.1,1.83-1.1c0.8,0,1.55,1.26,2.25,3.77c0.63,2.31,1.26,4.61,1.89,6.92c0.94,2.52,2.09,3.77,3.46,3.77
			c2.2,0,4.89-2.06,8.06-6.2c3.07-3.95,4.66-7.07,4.76-9.35C-179.67-69.71-180.8-71.27-183.2-71.34z"/>
	</g>
	<g>
		<path id="XMLID_695_" class="st0" d="M-427.05-38L-427.05-38c-12.83,0-23.23-10.4-23.23-23.23l0,0c0-12.83,10.4-23.23,23.23-23.23
			l0,0c12.83,0,23.23,10.4,23.23,23.23l0,0C-403.81-48.4-414.21-38-427.05-38z"/>
		<g>
			<g>
				<path class="st1" d="M-424.04-63.84c0.38,0,0.91-0.2,1.45-0.84v0.75h1.25v-6.75h-1.25v5.12c-0.15,0.19-0.49,0.51-0.74,0.51
					c-0.27,0-0.33-0.18-0.33-0.45v-5.18h-1.26v5.64C-424.92-64.38-424.72-63.84-424.04-63.84z"/>
				<path class="st1" d="M-429.63-65.62c0,1.19,0.62,1.81,1.84,1.81c1.01,0,1.8-0.67,1.8-1.81v-3.31c0-1.06-0.79-1.81-1.8-1.81
					c-1.11,0-1.84,0.73-1.84,1.81V-65.62z M-428.34-68.82c0-0.37,0.17-0.64,0.52-0.64c0.39,0,0.55,0.27,0.55,0.64v3.14
					c0,0.37-0.19,0.64-0.53,0.64c-0.35,0-0.55-0.28-0.55-0.64V-68.82z"/>
				<polygon class="st1" points="-432.63,-63.94 -431.21,-63.94 -431.21,-67.65 -429.57,-73.09 -431,-73.09 -431.91,-69.44
					-432.88,-73.09 -434.31,-73.09 -432.63,-67.65 				"/>
			</g>
			<g>
				<path class="st1" d="M-419.65-62.4h-14.8c-1.59,0-2.88,1.29-2.88,2.88v7.27c0,1.59,1.29,2.88,2.88,2.88h14.8
					c1.59,0,2.88-1.29,2.88-2.88v-7.27C-416.77-61.11-418.06-62.4-419.65-62.4z M-432.47-51.53h-1.35v-7.45h-1.39v-1.27h4.13v1.27
					h-1.39V-51.53z M-427.68-51.53h-1.2v-0.71c-0.22,0.26-0.45,0.46-0.69,0.6c-0.64,0.37-1.53,0.36-1.53-0.94v-5.37h1.2v4.93
					c0,0.26,0.06,0.43,0.32,0.43c0.23,0,0.56-0.3,0.7-0.48v-4.88h1.2V-51.53z M-423.08-52.86c0,0.8-0.3,1.41-1.09,1.41
					c-0.44,0-0.8-0.16-1.14-0.58v0.49h-1.21v-8.72h1.21v2.81c0.27-0.33,0.64-0.6,1.06-0.6c0.88,0,1.17,0.74,1.17,1.61V-52.86z
					 M-418.66-54.59h-2.29v1.21c0,0.48,0.04,0.9,0.52,0.9c0.51,0,0.53-0.34,0.53-0.9v-0.45h1.23v0.48c0,1.24-0.53,1.99-1.79,1.99
					c-1.14,0-1.73-0.83-1.73-1.99v-2.89c0-1.12,0.74-1.89,1.82-1.89c1.15,0,1.7,0.73,1.7,1.89V-54.59z"/>
				<path class="st1" d="M-420.41-57c-0.44,0-0.53,0.31-0.53,0.75v0.65h1.06v-0.65C-419.89-56.68-419.98-57-420.41-57z"/>
				<path class="st1" d="M-425.06-56.96c-0.08,0.04-0.17,0.11-0.25,0.2v4.01c0.1,0.1,0.19,0.18,0.28,0.23
					c0.19,0.1,0.48,0.11,0.61-0.07c0.07-0.09,0.1-0.24,0.1-0.44v-3.32c0-0.22-0.04-0.38-0.13-0.49
					C-424.58-57.04-424.85-57.06-425.06-56.96z"/>
			</g>
		</g>
	</g>
	<g>
		<g>
			<path id="XMLID_689_" class="st0" d="M-191.48,39.37L-191.48,39.37c-12.83,0-23.23-10.4-23.23-23.23l0,0
				c0-12.83,10.4-23.23,23.23-23.23l0,0c12.83,0,23.23,10.4,23.23,23.23l0,0C-168.25,28.97-178.65,39.37-191.48,39.37z"/>
		</g>
		<g>
			<g>
				<path class="st1" d="M-205.41,16.51c-0.01-0.07-0.06-0.12-0.12-0.12c-0.06,0-0.12,0.05-0.12,0.12l-0.29,2.69l0.29,2.63
					c0.01,0.07,0.06,0.12,0.12,0.12c0.06,0,0.11-0.05,0.12-0.12l0.34-2.63L-205.41,16.51z"/>
				<path class="st1" d="M-200.77,14.03c-0.12,0-0.22,0.1-0.23,0.22l-0.23,4.95l0.23,3.2c0.01,0.13,0.11,0.22,0.23,0.22
					c0.12,0,0.22-0.1,0.23-0.22v0l0.27-3.2l-0.27-4.95C-200.55,14.13-200.64,14.03-200.77,14.03z"/>
				<path class="st1" d="M-203.17,15.75c-0.09,0-0.17,0.07-0.18,0.17l-0.26,3.28l0.26,3.18c0.01,0.1,0.08,0.17,0.18,0.17
					c0.09,0,0.17-0.07,0.18-0.17l0.3-3.18l-0.3-3.28C-203,15.82-203.08,15.75-203.17,15.75z"/>
				<path class="st1" d="M-198.32,22.63c0.15,0,0.27-0.12,0.28-0.28l0.23-3.15l-0.23-6.6c-0.01-0.15-0.13-0.28-0.28-0.28
					c-0.15,0-0.27,0.12-0.28,0.28l-0.2,6.59l0.2,3.15C-198.6,22.51-198.47,22.63-198.32,22.63z"/>
				<path class="st1" d="M-193.32,22.64c0.21,0,0.38-0.17,0.38-0.38v0v0l0.16-3.06l-0.16-7.62c0-0.21-0.17-0.38-0.38-0.38
					c-0.21,0-0.38,0.17-0.38,0.38l-0.14,7.61c0,0,0.14,3.06,0.14,3.06C-193.7,22.47-193.53,22.64-193.32,22.64z"/>
				<path class="st1" d="M-195.84,22.63c0.18,0,0.32-0.14,0.33-0.33v0l0.2-3.1l-0.2-6.64c0-0.18-0.15-0.33-0.33-0.33
					c-0.18,0-0.33,0.14-0.33,0.33l-0.17,6.64l0.17,3.1C-196.17,22.49-196.02,22.63-195.84,22.63z"/>
			</g>
			<path class="st1" d="M-180.69,15.28c-0.51,0-0.99,0.1-1.43,0.29c-0.29-3.32-3.08-5.93-6.48-5.93c-0.83,0-1.64,0.16-2.36,0.44
				c-0.28,0.11-0.35,0.22-0.35,0.43v11.7c0,0.23,0.18,0.41,0.4,0.44c0.01,0,10.16,0.01,10.22,0.01c2.04,0,3.69-1.65,3.69-3.69
				C-177,16.93-178.65,15.28-180.69,15.28z"/>
		</g>
	</g>
	<g>
		<g>
			<path id="XMLID_681_" class="st0" d="M-112.96,116.75L-112.96,116.75c-12.83,0-23.23-10.4-23.23-23.23l0,0
				c0-12.83,10.4-23.23,23.23-23.23l0,0c12.83,0,23.23,10.4,23.23,23.23l0,0C-89.72,106.35-100.12,116.75-112.96,116.75z"/>
		</g>
		<g>
			<path class="st1" d="M-122.09,82.64v4.02c4.26,0.02,8.27,1.69,11.29,4.7c3.02,3.02,4.69,7.04,4.7,11.31h4.02
				C-102.11,91.63-111.05,82.68-122.09,82.64z"/>
			<path class="st1" d="M-119.38,97.25c-1.5,0-2.71,1.21-2.71,2.71c0,1.5,1.21,2.71,2.71,2.71c1.5,0,2.71-1.21,2.71-2.71
				C-116.67,98.46-117.89,97.25-119.38,97.25z"/>
			<path class="st1" d="M-122.09,89.47v4.02c5.04,0.05,9.14,4.14,9.19,9.19h4.02C-108.94,95.4-114.82,89.52-122.09,89.47z"/>
		</g>
	</g>
	<g>
		<g>
			<path id="XMLID_686_" class="st0" d="M-112.96,39.37L-112.96,39.37c-12.83,0-23.23-10.4-23.23-23.23l0,0
				c0-12.83,10.4-23.23,23.23-23.23l0,0c12.83,0,23.23,10.4,23.23,23.23l0,0C-89.72,28.97-100.12,39.37-112.96,39.37z"/>
		</g>
		<path class="st1" d="M-105.01,6.48c-0.69,0.23-2.17,1.67-0.3,4.24c1.87,2.57,0.76,5.5,0.76,5.5l-1.63,5.42l-4.11-12.23
			c0,0,1.16-0.09,1.33-0.11c0.17-0.02,0.44-0.19,0.4-0.54c-0.05-0.35-0.3-0.4-0.54-0.39c-0.12,0.01-1.56,0.11-2.98,0.11
			c-1.42,0-2.82-0.11-2.92-0.11c-0.2-0.01-0.49,0.01-0.56,0.33c-0.05,0.26,0.08,0.56,0.36,0.59c0.29,0.03,0.09,0.01,1.24,0.12
			c0,0,0.78,2.14,1.77,4.85l-2.51,7.44l-4.13-12.28c0,0,1.16-0.09,1.33-0.11c0.17-0.02,0.44-0.19,0.4-0.54
			c-0.05-0.35-0.3-0.4-0.54-0.39c-0.12,0.01-1.56,0.11-2.98,0.11c-1.42,0-2.82-0.11-2.92-0.11c-0.2-0.01-0.49,0.01-0.56,0.33
			c-0.05,0.26,0.08,0.56,0.36,0.59c0.29,0.03,0.09,0.01,1.24,0.12c0,0,5.49,15.03,5.78,15.84c0.29,0.81,1.5,1.02,1.84-0.04
			c0.25-0.78,2.23-6.51,3.24-9.44c1.54,4.21,3.3,9.04,3.46,9.48c0.29,0.81,1.5,1.02,1.84-0.04c0.34-1.05,2.29-6.5,3.95-11.37
			C-100.92,9.4-102.29,5.6-105.01,6.48z"/>
	</g>
	<g>
		<path id="XMLID_3_" class="st0" d="M-270-38L-270-38c-12.83,0-23.23-10.4-23.23-23.23l0,0c0-12.83,10.4-23.23,23.23-23.23l0,0
			c12.83,0,23.23,10.4,23.23,23.23l0,0C-246.77-48.4-257.17-38-270-38z"/>
		<g id="XMLID_821_">
			<path id="XMLID_823_" class="st1" d="M-270-75.06c-7.63,0-13.82,6.19-13.82,13.82c0,7.63,6.19,13.82,13.82,13.82
				c7.64,0,13.82-6.19,13.82-13.82C-256.18-68.87-262.37-75.06-270-75.06z M-270-72.65c2.62,0,5.03,0.9,6.96,2.39
				c-1.39,1.79-3.3,3.21-5.74,4.24c-1.17-2.14-2.51-4.23-4.02-6.26C-271.9-72.52-270.97-72.65-270-72.65z M-275.15-71.41
				c1.53,2.01,2.89,4.08,4.07,6.2c-2.8,0.82-6.14,1.25-10,1.27C-280.28-67.2-278.08-69.92-275.15-71.41z M-281.42-61.23
				c0-0.1,0.01-0.2,0.02-0.29c4.43-0.01,8.26-0.52,11.46-1.52c0.27,0.55,0.53,1.1,0.77,1.65c-3.89,1.22-7.1,3.71-9.6,7.46
				C-280.42-55.92-281.42-58.46-281.42-61.23z M-270-49.81c-2.64,0-5.07-0.91-7.01-2.42c2.27-3.56,5.16-5.87,8.75-6.94
				c1.07,2.79,1.85,5.66,2.35,8.59C-267.18-50.09-268.55-49.81-270-49.81z M-263.66-51.74c-0.5-2.71-1.24-5.36-2.21-7.94
				c2.16-0.3,4.54-0.23,7.14,0.23C-259.24-56.25-261.07-53.48-263.66-51.74z M-266.79-61.96c-0.28-0.65-0.57-1.3-0.88-1.94
				c2.66-1.15,4.8-2.72,6.39-4.7c1.55,1.84,2.53,4.17,2.67,6.72C-261.58-62.36-264.31-62.39-266.79-61.96z"/>
		</g>
	</g>
	<g>
		<path id="XMLID_4_" class="st0" d="M-348.52-38L-348.52-38c-12.83,0-23.23-10.4-23.23-23.23l0,0c0-12.83,10.4-23.23,23.23-23.23
			l0,0c12.83,0,23.23,10.4,23.23,23.23l0,0C-325.29-48.4-335.69-38-348.52-38z"/>
		<g id="XMLID_810_">
			<path id="XMLID_811_" class="st4" d="M-338.55-56.94c-0.55-0.27-3.23-1.58-3.73-1.76c-0.5-0.19-0.87-0.27-1.23,0.27
				c-0.36,0.54-1.42,1.76-1.73,2.11c-0.32,0.36-0.64,0.41-1.19,0.14c-0.54-0.27-2.3-0.83-4.39-2.69c-1.61-1.43-2.72-3.2-3.03-3.74
				c-0.31-0.54-0.03-0.83,0.24-1.1c0.25-0.25,0.54-0.64,0.82-0.95c0.07-0.09,0.14-0.18,0.2-0.26c0.13-0.2,0.22-0.39,0.34-0.65
				c0.19-0.36,0.09-0.68-0.04-0.95c-0.14-0.27-1.23-2.94-1.69-4.02c-0.45-1.08-0.91-0.9-1.23-0.9c-0.31,0-0.68-0.05-1.04-0.05
				c-0.36,0-0.96,0.14-1.46,0.68c-0.5,0.54-1.91,1.85-1.91,4.52c0,0.63,0.11,1.25,0.28,1.84c0.55,1.91,1.74,3.48,1.95,3.75
				c0.27,0.35,3.77,6,9.31,8.18c5.55,2.16,5.55,1.44,6.55,1.34c1-0.08,3.23-1.3,3.68-2.57c0.46-1.26,0.46-2.34,0.32-2.57
				C-337.65-56.54-338.01-56.67-338.55-56.94z"/>
		</g>
	</g>
	<g>
		<path id="XMLID_5_" class="st0" d="M-348.52,39.37L-348.52,39.37c-12.83,0-23.23-10.4-23.23-23.23l0,0
			c0-12.83,10.4-23.23,23.23-23.23l0,0c12.83,0,23.23,10.4,23.23,23.23l0,0C-325.29,28.97-335.69,39.37-348.52,39.37z"/>
		<g>
			<path class="st1" d="M-341.96,11.75h-13.12c-0.29,0-0.53,0.24-0.53,0.53v11c0,0.29,0.24,0.53,0.53,0.53h2.34v3.71
				c0,0.86,0.7,1.56,1.56,1.56l0,0c0.86,0,1.56-0.7,1.56-1.56v-3.71h2.18v3.71c0,0.86,0.7,1.56,1.56,1.56l0,0
				c0.86,0,1.56-0.7,1.56-1.56v-3.71h2.37c0.29,0,0.53-0.24,0.53-0.53v-11C-341.44,11.99-341.67,11.75-341.96,11.75z"/>
			<path class="st1" d="M-357.83,11.75L-357.83,11.75c-0.86,0-1.56,0.7-1.56,1.56v6.33c0,0.86,0.7,1.56,1.56,1.56l0,0
				c0.86,0,1.56-0.7,1.56-1.56v-6.33C-356.27,12.45-356.97,11.75-357.83,11.75z"/>
			<path class="st1" d="M-339.22,11.75L-339.22,11.75c-0.86,0-1.56,0.7-1.56,1.56v6.33c0,0.86,0.7,1.56,1.56,1.56l0,0
				c0.86,0,1.56-0.7,1.56-1.56v-6.33C-337.66,12.45-338.36,11.75-339.22,11.75z"/>
			<path class="st1" d="M-354.97,10.98h12.87c0.34,0,0.59-0.31,0.52-0.64c-0.43-2.03-1.72-3.74-3.47-4.73l1.1-1.99
				c0.07-0.13,0.03-0.3-0.11-0.38c-0.13-0.07-0.3-0.03-0.38,0.11l-1.11,2c-0.91-0.42-1.92-0.66-2.99-0.66s-2.08,0.24-2.99,0.66
				l-1.11-2c-0.07-0.13-0.24-0.18-0.38-0.11c-0.13,0.07-0.18,0.24-0.11,0.38l1.1,1.99c-1.75,0.99-3.05,2.7-3.47,4.73
				C-355.56,10.67-355.31,10.98-354.97,10.98z M-344.7,8.02c0,0.33-0.27,0.6-0.6,0.6c-0.33,0-0.6-0.27-0.6-0.6
				c0-0.33,0.27-0.6,0.6-0.6C-344.96,7.42-344.7,7.69-344.7,8.02z M-351.78,7.42c0.33,0,0.6,0.27,0.6,0.6c0,0.33-0.27,0.6-0.6,0.6
				s-0.6-0.27-0.6-0.6C-352.38,7.69-352.11,7.42-351.78,7.42z"/>
		</g>
	</g>
	<g>
		<path id="XMLID_2_" class="st0" d="M-348.52,116.75L-348.52,116.75c-12.83,0-23.23-10.4-23.23-23.23l0,0
			c0-12.83,10.4-23.23,23.23-23.23l0,0c12.83,0,23.23,10.4,23.23,23.23l0,0C-325.29,106.35-335.69,116.75-348.52,116.75z"/>
		<path class="st1" d="M-338.23,84.94c-2.21-2.01-5.18-2.47-7.94-1.23c-0.14,0.06-0.29,0.13-0.43,0.21l-1.92,0.99l-1.92-0.99
			c-0.14-0.07-0.29-0.14-0.43-0.21c-2.76-1.24-5.73-0.79-7.94,1.23c-2.28,2.08-3.17,5.35-2.21,8.14c0.46,1.34,1.35,2.53,2.58,3.46
			l9.92,7.47l9.92-7.47c1.23-0.93,2.12-2.12,2.58-3.46C-335.06,90.29-335.95,87.02-338.23,84.94z"/>
	</g>
	<g>
		<path id="XMLID_00000111902094830482916160000012301840747891720329_" class="st3" d="M25,48.17L25,48.17
			c-12.83,0-23.23-10.4-23.23-23.23l0,0C1.77,12.1,12.17,1.7,25,1.7l0,0c12.83,0,23.23,10.4,23.23,23.23l0,0
			C48.23,37.77,37.83,48.17,25,48.17z"/>
	</g>
	<g>
		<path id="XMLID_00000181055356464140461100000004312965692812044419_" class="st3" d="M95,48.17L95,48.17
			c-12.83,0-23.23-10.4-23.23-23.23l0,0C71.77,12.1,82.17,1.7,95,1.7l0,0c12.83,0,23.23,10.4,23.23,23.23l0,0
			C118.23,37.77,107.83,48.17,95,48.17z"/>
	</g>
	<path id="XMLID_00000044869173090842351480000008704912193418584973_" class="st1" d="M21.86,37.39h5.01V24.83h3.5l0.37-4.2h-3.87
		c0,0,0-1.57,0-2.39c0-0.99,0.2-1.38,1.16-1.38c0.77,0,2.71,0,2.71,0v-4.36c0,0-2.86,0-3.47,0c-3.73,0-5.41,1.64-5.41,4.79
		c0,2.74,0,3.35,0,3.35h-2.61v4.26h2.61V37.39z"/>
	<g id="XMLID_00000059267392483337577330000013218410686889091735_">
		<path id="XMLID_00000047045017930672664480000015159715491551488907_" class="st1" d="M95,15.68c3.02,0,3.37,0.01,4.56,0.07
			c1.1,0.05,1.7,0.23,2.1,0.39c0.53,0.2,0.9,0.45,1.3,0.84c0.4,0.4,0.64,0.77,0.84,1.3c0.15,0.4,0.34,1,0.39,2.1
			c0.05,1.19,0.07,1.55,0.07,4.56c0,3.02-0.01,3.37-0.07,4.56c-0.05,1.1-0.23,1.7-0.39,2.1c-0.2,0.53-0.45,0.9-0.84,1.3
			c-0.4,0.4-0.77,0.64-1.3,0.84c-0.4,0.15-1,0.34-2.1,0.39c-1.19,0.05-1.55,0.07-4.56,0.07c-3.02,0-3.37-0.01-4.56-0.07
			c-1.1-0.05-1.7-0.23-2.1-0.39c-0.53-0.2-0.9-0.45-1.3-0.84c-0.4-0.4-0.64-0.77-0.84-1.3c-0.15-0.4-0.34-1-0.39-2.1
			c-0.05-1.19-0.07-1.55-0.07-4.56c0-3.02,0.01-3.37,0.07-4.56c0.05-1.1,0.23-1.7,0.39-2.1c0.21-0.53,0.45-0.9,0.84-1.3
			c0.4-0.4,0.77-0.64,1.3-0.84c0.4-0.15,1-0.34,2.1-0.39C91.63,15.69,91.98,15.68,95,15.68 M95,13.64c-3.07,0-3.45,0.01-4.66,0.07
			c-1.2,0.05-2.02,0.25-2.74,0.53c-0.74,0.29-1.37,0.67-2,1.3c-0.63,0.63-1.01,1.26-1.3,2c-0.28,0.72-0.47,1.54-0.53,2.74
			c-0.06,1.2-0.07,1.59-0.07,4.66s0.01,3.45,0.07,4.66c0.05,1.2,0.25,2.02,0.53,2.74c0.29,0.74,0.67,1.37,1.3,2
			c0.63,0.63,1.26,1.01,2,1.3c0.72,0.28,1.54,0.47,2.74,0.53c1.2,0.05,1.59,0.07,4.66,0.07c3.07,0,3.45-0.01,4.66-0.07
			c1.2-0.05,2.02-0.25,2.74-0.53c0.74-0.29,1.37-0.67,2-1.3c0.63-0.63,1.01-1.26,1.3-2c0.28-0.72,0.47-1.54,0.53-2.74
			c0.05-1.2,0.07-1.59,0.07-4.66s-0.01-3.45-0.07-4.66c-0.05-1.2-0.25-2.02-0.53-2.74c-0.29-0.74-0.67-1.37-1.3-2
			c-0.63-0.63-1.26-1.01-2-1.3c-0.72-0.28-1.54-0.47-2.74-0.53C98.45,13.65,98.07,13.64,95,13.64"/>
		<path id="XMLID_00000021084431479281238340000016877637970493553040_" class="st1" d="M95,19.14c-3.2,0-5.8,2.6-5.8,5.8
			s2.6,5.8,5.8,5.8c3.2,0,5.8-2.6,5.8-5.8S98.2,19.14,95,19.14 M95,28.7c-2.08,0-3.76-1.69-3.76-3.76c0-2.08,1.69-3.76,3.76-3.76
			c2.08,0,3.76,1.69,3.76,3.76C98.76,27.01,97.08,28.7,95,28.7"/>
		<path id="XMLID_00000160910261871051232620000007046343043850071697_" class="st1" d="M102.38,18.91c0,0.75-0.61,1.36-1.36,1.36
			c-0.75,0-1.36-0.61-1.36-1.36c0-0.75,0.61-1.36,1.36-1.36C101.78,17.55,102.38,18.16,102.38,18.91"/>
	</g>
</g>
<g id="DESIGNED_BY_FREEPIK">
	<g>
		<g id="XMLID_319_">
			<g id="XMLID_338_">
				<path id="XMLID_346_" class="st5" d="M-259.9,318.91c-0.43,0.44-0.8,0.93-1.11,1.45l-0.47-0.24c-0.07-0.3-0.35-0.5-0.66-0.47
					c-0.33,0.04-0.57,0.34-0.53,0.67c0.04,0.33,0.34,0.57,0.67,0.53c0.07-0.01,0.13-0.03,0.18-0.05l0.45,0.23
					c-0.25,0.55-0.43,1.14-0.54,1.74l0.75,0.13c0.23-1.31,0.85-2.51,1.79-3.47L-259.9,318.91z"/>
				<path id="XMLID_345_" class="st5" d="M-254.41,316.61c-0.17,0-0.34,0.01-0.51,0.02l-0.07-0.63c0.19-0.15,0.3-0.39,0.27-0.64
					c-0.05-0.39-0.4-0.67-0.8-0.63c-0.39,0.05-0.67,0.4-0.63,0.8c0.03,0.25,0.19,0.46,0.4,0.56l0.07,0.62
					c-0.71,0.12-1.4,0.33-2.06,0.65l0.33,0.68c0.93-0.45,1.94-0.67,3-0.67c0.5,0,0.99,0.05,1.48,0.16l0.16-0.74
					C-253.31,316.67-253.86,316.61-254.41,316.61z"/>
				<path id="XMLID_344_" class="st5" d="M-247.81,319.16c0.33-0.04,0.57-0.34,0.53-0.67c-0.04-0.33-0.34-0.57-0.67-0.53
					c-0.31,0.04-0.54,0.3-0.53,0.61l-0.42,0.36c-0.42-0.43-0.89-0.81-1.41-1.14l-0.4,0.64c1.13,0.71,2.02,1.73,2.56,2.93l0.69-0.31
					c-0.25-0.55-0.57-1.07-0.94-1.55l0.4-0.35C-247.94,319.16-247.87,319.16-247.81,319.16z"/>
				<path id="XMLID_343_" class="st5" d="M-254.96,326.82c-0.39,0.02-0.78,0.03-1.16,0.03c-0.88,0-1.73-0.06-2.48-0.18
					c-0.39-0.06-0.85-0.15-1.27-0.29c1.05,1.86,3.07,3.12,5.39,3.12c2.86,0,5.26-1.92,5.95-4.5c-0.68,0.45-1.51,0.83-2.46,1.12
					C-252.16,326.49-253.54,326.73-254.96,326.82z"/>
				<path id="XMLID_339_" class="st5" d="M-254.41,318.13c-3.35,0-6.08,2.67-6.08,5.94c0,0.43,0.05,0.85,0.14,1.26
					c0.67,0.48,2.71,0.89,5.35,0.73c2.88-0.17,5.3-0.96,6.67-2.16c-0.01-0.2-0.02-0.39-0.05-0.58
					C-248.76,320.36-251.35,318.13-254.41,318.13z M-256.57,324.64c-1.02,0-1.85-0.83-1.85-1.85c0-1.02,0.83-1.85,1.85-1.85
					c1.02,0,1.85,0.83,1.85,1.85C-254.72,323.81-255.55,324.64-256.57,324.64z M-251.83,323.73c-0.75,0-1.36-0.61-1.36-1.36
					c0-0.75,0.61-1.36,1.36-1.36c0.75,0,1.36,0.61,1.36,1.36C-250.47,323.12-251.08,323.73-251.83,323.73z"/>
			</g>
			<path id="XMLID_336_" class="st5" d="M-238.4,319.99c-0.29-0.12-0.81-0.31-1.38-0.24c-0.55,0.07-0.84,0.34-0.84,1.01v0.87h2.23
				v1.72h-2.23v5.45h-1.93v-5.45h-1.34v-1.72h1.34v-0.89c0-1.68,0.9-2.78,2.57-2.78c0.64,0,1.16,0.12,1.59,0.31L-238.4,319.99z"/>
			<path id="XMLID_334_" class="st5" d="M-233.7,323.32c-0.18-0.03-0.36-0.05-0.53-0.05c-0.9,0-1.51,0.55-1.51,1.61v3.91h-1.93
				v-7.17h1.87v0.78c0.45-0.67,1.14-0.98,2.02-0.98c0.41,0,0.85,0.13,1.09,0.34L-233.7,323.32z"/>
			<path id="XMLID_331_" class="st5" d="M-226.03,325.2c0,0.22-0.01,0.49-0.04,0.65h-5.08c0.21,1.04,0.93,1.49,1.84,1.49
				c0.62,0,1.3-0.25,1.81-0.69l1.13,1.24c-0.81,0.75-1.85,1.09-3.06,1.09c-2.2,0-3.72-1.5-3.72-3.75c0-2.26,1.48-3.8,3.63-3.8
				C-227.46,321.44-226.04,322.97-226.03,325.2z M-231.15,324.54h3.18c-0.18-0.92-0.73-1.44-1.56-1.44
				C-230.45,323.1-230.98,323.65-231.15,324.54z"/>
			<path id="XMLID_328_" class="st5" d="M-218.38,325.2c0,0.22-0.01,0.49-0.04,0.65h-5.08c0.21,1.04,0.93,1.49,1.84,1.49
				c0.62,0,1.3-0.25,1.81-0.69l1.13,1.24c-0.81,0.75-1.85,1.09-3.06,1.09c-2.2,0-3.72-1.5-3.72-3.75c0-2.26,1.48-3.8,3.63-3.8
				C-219.8,321.44-218.39,322.97-218.38,325.2z M-223.5,324.54h3.18c-0.18-0.92-0.73-1.44-1.56-1.44
				C-222.79,323.1-223.33,323.65-223.5,324.54z"/>
			<path id="XMLID_325_" class="st5" d="M-210.04,325.21c0,2.15-1.5,3.77-3.47,3.77c-0.96,0-1.64-0.38-2.11-0.93v3.71h-1.92v-10.13
				h1.89v0.79c0.47-0.58,1.15-0.98,2.14-0.98C-211.53,321.44-210.04,323.06-210.04,325.21z M-215.71,325.21
				c0,1.13,0.75,1.98,1.84,1.98c1.14,0,1.85-0.88,1.85-1.98c0-1.1-0.71-1.98-1.85-1.98C-214.97,323.23-215.71,324.08-215.71,325.21z
				"/>
			<path id="XMLID_322_" class="st5" d="M-206.93,319.28c0,0.7-0.54,1.23-1.24,1.23c-0.7,0-1.23-0.53-1.23-1.23
				c0-0.7,0.53-1.24,1.23-1.24C-207.47,318.04-206.93,318.59-206.93,319.28z M-207.19,328.8h-1.93v-7.17h1.93V328.8z"/>
			<path id="XMLID_320_" class="st5" d="M-203.97,324.18l2.7-2.55h2.37l-3.48,3.38l3.5,3.8h-2.38l-2.72-2.9v2.9h-1.93v-10.66h1.93
				V324.18z"/>
		</g>
		<g>
			<path class="st5" d="M-335.59,328.73v-1.05c-0.53,0.72-1.39,1.23-2.39,1.23c-1.85,0-3.15-1.41-3.15-3.71
				c0-2.26,1.29-3.72,3.15-3.72c0.95,0,1.82,0.47,2.39,1.25v-3.76h1.1v9.77H-335.59z M-335.59,326.82v-3.21
				c-0.4-0.62-1.24-1.14-2.12-1.14c-1.42,0-2.27,1.17-2.27,2.74c0,1.57,0.85,2.72,2.27,2.72
				C-336.83,327.93-335.98,327.43-335.59,326.82z"/>
			<path class="st5" d="M-333.07,325.19c0-2.05,1.46-3.71,3.49-3.71c2.14,0,3.4,1.67,3.4,3.79v0.28h-5.73
				c0.09,1.33,1.03,2.45,2.55,2.45c0.81,0,1.63-0.32,2.18-0.89l0.53,0.72c-0.7,0.7-1.65,1.08-2.81,1.08
				C-331.56,328.91-333.07,327.4-333.07,325.19z M-329.6,322.39c-1.51,0-2.26,1.27-2.31,2.36h4.64
				C-327.28,323.7-327.99,322.39-329.6,322.39z"/>
			<path class="st5" d="M-325.39,327.8l0.57-0.79c0.47,0.54,1.36,1.01,2.33,1.01c1.08,0,1.67-0.51,1.67-1.22
				c0-1.71-4.38-0.66-4.38-3.28c0-1.1,0.95-2.04,2.64-2.04c1.2,0,2.05,0.45,2.62,1.03l-0.51,0.76c-0.42-0.51-1.2-0.89-2.11-0.89
				c-0.97,0-1.57,0.48-1.57,1.11c0,1.55,4.38,0.53,4.38,3.28c0,1.19-0.95,2.14-2.78,2.14C-323.69,328.91-324.68,328.56-325.39,327.8
				z"/>
			<path class="st5" d="M-318.52,319.92c0-0.41,0.34-0.75,0.73-0.75c0.41,0,0.75,0.34,0.75,0.75c0,0.41-0.34,0.73-0.75,0.73
				C-318.19,320.65-318.52,320.33-318.52,319.92z M-318.33,328.73v-7.07h1.1v7.07H-318.33z"/>
			<path class="st5" d="M-315.42,330.55l0.56-0.82c0.59,0.7,1.29,0.97,2.3,0.97c1.17,0,2.27-0.57,2.27-2.12v-1.01
				c-0.51,0.72-1.38,1.26-2.37,1.26c-1.85,0-3.15-1.38-3.15-3.66c0-2.27,1.29-3.68,3.15-3.68c0.95,0,1.8,0.47,2.37,1.25v-1.07h1.1
				v6.87c0,2.34-1.64,3.08-3.37,3.08C-313.76,331.61-314.58,331.37-315.42,330.55z M-310.29,326.7v-3.09
				c-0.38-0.62-1.23-1.14-2.11-1.14c-1.42,0-2.27,1.13-2.27,2.7c0,1.55,0.85,2.7,2.27,2.7
				C-311.52,327.86-310.67,327.31-310.29,326.7z"/>
			<path class="st5" d="M-302.59,328.73v-4.63c0-1.24-0.63-1.64-1.58-1.64c-0.86,0-1.68,0.53-2.09,1.1v5.17h-1.1v-7.07h1.1v1.03
				c0.5-0.59,1.46-1.2,2.52-1.2c1.48,0,2.26,0.75,2.26,2.29v4.97H-302.59z"/>
			<path class="st5" d="M-300.07,325.19c0-2.05,1.46-3.71,3.49-3.71c2.14,0,3.4,1.67,3.4,3.79v0.28h-5.73
				c0.09,1.33,1.03,2.45,2.55,2.45c0.81,0,1.63-0.32,2.18-0.89l0.53,0.72c-0.7,0.7-1.66,1.08-2.81,1.08
				C-298.56,328.91-300.07,327.4-300.07,325.19z M-296.6,322.39c-1.51,0-2.26,1.27-2.31,2.36h4.64
				C-294.28,323.7-294.98,322.39-296.6,322.39z"/>
			<path class="st5" d="M-286.65,328.73v-1.05c-0.53,0.72-1.39,1.23-2.39,1.23c-1.85,0-3.15-1.41-3.15-3.71
				c0-2.26,1.29-3.72,3.15-3.72c0.95,0,1.82,0.47,2.39,1.25v-3.76h1.1v9.77H-286.65z M-286.65,326.82v-3.21
				c-0.4-0.62-1.25-1.14-2.12-1.14c-1.42,0-2.27,1.17-2.27,2.74c0,1.57,0.85,2.72,2.27,2.72
				C-287.9,327.93-287.05,327.43-286.65,326.82z"/>
			<path class="st5" d="M-280.31,328.73v-9.77h1.1v3.76c0.57-0.78,1.42-1.25,2.39-1.25c1.85,0,3.15,1.46,3.15,3.72
				c0,2.3-1.3,3.71-3.15,3.71c-1,0-1.86-0.51-2.39-1.23v1.05H-280.31z M-277.1,327.93c1.44,0,2.29-1.16,2.29-2.72
				c0-1.57-0.85-2.74-2.29-2.74c-0.86,0-1.73,0.53-2.11,1.14v3.21C-278.83,327.43-277.96,327.93-277.1,327.93z"/>
			<path class="st5" d="M-272.47,330.51c0.16,0.07,0.42,0.12,0.6,0.12c0.48,0,0.81-0.16,1.05-0.75l0.47-1.07l-2.96-7.15h1.19
				l2.36,5.8l2.34-5.8h1.2l-3.54,8.51c-0.42,1.03-1.14,1.42-2.08,1.44c-0.23,0-0.6-0.04-0.81-0.1L-272.47,330.51z"/>
		</g>
	</g>
</g>
</svg>
