<?xml version="1.0" encoding="utf-8"?>
<!-- Generator: Adobe Illustrator 25.3.1, SVG Export Plug-In . SVG Version: 6.00 Build 0)  -->
<svg version="1.1" id="Layer_1" xmlns="http://www.w3.org/2000/svg" xmlns:xlink="http://www.w3.org/1999/xlink" x="0px" y="0px"
	 viewBox="0 0 23.61 21.68" style="enable-background:new 0 0 23.61 21.68;" xml:space="preserve">
<style type="text/css">
	.st0{fill:#38383D;}
</style>
<path class="st0" d="M12.26,8.83h-1c0-0.96,0.65-1.48,1.13-1.86c0.35-0.28,0.57-0.46,0.57-0.67c-0.03-0.62-0.56-1.1-1.19-1.07
	c-0.52-0.02-0.95,0.27-1.15,0.71L9.71,5.53c0.36-0.8,1.16-1.3,2.04-1.29c1.17-0.05,2.14,0.85,2.2,2.02c0,0.75-0.52,1.17-0.94,1.5
	C12.55,8.13,12.26,8.38,12.26,8.83z M11.2,15.11h6.35c1.01,0,1.95-0.4,2.66-1.11s1.1-1.66,1.1-2.67v-6.6c0-2.08-1.69-3.77-3.77-3.77
	H6.01C5,0.98,4.06,1.39,3.37,2.11c-0.7,0.73-1.08,1.68-1.06,2.68v6.5c0,1.91,1.43,3.49,3.27,3.74v5.69L11.2,15.11z M17.54,1.96
	c1.53,0,2.77,1.24,2.77,2.83v6.54c0,0.74-0.28,1.44-0.81,1.96c-0.52,0.52-1.22,0.82-1.96,0.82h-6.76l-4.2,4.19v-4.24h-0.5
	c-1.53,0-2.77-1.24-2.77-2.78v-6.5C3.3,4.04,3.57,3.34,4.08,2.81s1.2-0.83,2-0.85H17.54z M11.81,9.84c-0.49,0-0.88,0.39-0.88,0.88
	s0.39,0.88,0.88,0.88s0.88-0.39,0.88-0.88C12.69,10.23,12.3,9.84,11.81,9.84z"/>
</svg>
