<?xml version="1.0" encoding="utf-8"?>
<!-- Generator: Adobe Illustrator 25.3.1, SVG Export Plug-In . SVG Version: 6.00 Build 0)  -->
<svg version="1.1" id="Layer_1" xmlns="http://www.w3.org/2000/svg" xmlns:xlink="http://www.w3.org/1999/xlink" x="0px" y="0px"
	 viewBox="0 0 23.61 21.68" style="enable-background:new 0 0 23.61 21.68;" xml:space="preserve">
<style type="text/css">
	.st0{fill:#38383D;}
</style>
<path class="st0" d="M16.91,1.7c-2.06,0-3.97,1.05-5.08,2.74C10.7,2.75,8.78,1.7,6.73,1.7c-0.01,0-0.01,0-0.02,0
	C3.62,1.7,1.1,4.22,1.1,7.31c0,5.16,6.56,10.05,10.46,12.5l0.27,0.17l0.27-0.17c3.89-2.45,10.42-7.34,10.42-12.5
	C22.52,4.22,20,1.7,16.91,1.7z M11.83,18.8C8.7,16.8,2.1,12.02,2.1,7.31c0-2.54,2.07-4.61,4.61-4.61c0.01,0,0.01,0,0.02,0
	c1.99,0,3.81,1.16,4.65,2.97l0.46,0.98l0.45-0.99c0.83-1.8,2.64-2.97,4.62-2.97c2.54,0,4.61,2.07,4.61,4.61
	C21.52,12.03,14.95,16.8,11.83,18.8z"/>
</svg>
