<svg id="Layer_1" data-name="Layer 1" xmlns="http://www.w3.org/2000/svg" viewBox="0 0 454.71 305.22"><defs><style>.cls-1{fill:#38383d;}.cls-1,.cls-2,.cls-3,.cls-4{fill-rule:evenodd;}.cls-2{fill:#606060;}.cls-3{fill:#9e9e9e;}.cls-4{fill:#fff;}</style></defs><title>weboldal ikonok</title><path class="cls-1" d="M227.35,220.84a92,92,0,1,0-61.65,23.79,91.6,91.6,0,0,0,61.65-23.79"/><path class="cls-1" d="M227.35,220.84a92,92,0,0,0,0-136.45Z"/><path class="cls-2" d="M289.18,60.59a92,92,0,0,0-61.83,23.79,117.21,117.21,0,0,0-9.19,9.73h18.57a119.92,119.92,0,0,1,7,9.73H211.13q-3,4.87-5.41,9.73H249c1.44,3.25,2.88,6.49,4,9.73h-51a89.43,89.43,0,0,0-2.7,9.91h56.42a97.62,97.62,0,0,1,2,19.47A92.64,92.64,0,0,1,253,181.9h-51q1.62,4.87,3.78,9.73H249a100.76,100.76,0,0,1-5.23,9.73H211.13a95.26,95.26,0,0,0,7,9.73h18.57a95.24,95.24,0,0,1-9.37,9.73A92,92,0,1,0,289.18,60.59"/><polygon class="cls-3" points="151.29 178.3 139.75 178.3 146.6 142.43 130.92 178.3 121.18 178.3 119.2 142.61 111.63 178.3 101.17 178.3 110.01 131.61 128.21 131.61 128.39 160.45 141.01 131.61 160.3 131.61 151.29 178.3"/><path class="cls-3" d="M279.27,177.76A29,29,0,0,1,271,179c-5.77,0-9-2.88-9-8.29a22,22,0,0,1,.36-3.43l.72-3.78.54-2.88,5.23-29h11.36l-1.62,8.65h5.77l-1.44,9.19h-5.95l-3.06,15.86c0,.72-.18,1.26-.18,1.62,0,2,1.26,2.7,4,2.7a7.52,7.52,0,0,0,3.06-.36Z"/><path class="cls-3" d="M233.84,152.34c0,4.69,2.7,8.11,8.65,10.45,4.87,2,5.59,2.52,5.59,4.33,0,2.34-2.16,3.43-6.67,3.43A36,36,0,0,1,231,168.92l-1.62,8.83h.54l2.16.36a11.8,11.8,0,0,0,3.07.36c2.7.18,4.87.36,6.31.36,12.26,0,17.84-4,17.84-12.62,0-5.23-2.34-8.29-8.11-10.64-4.87-1.8-5.41-2.34-5.41-4.15,0-2,2-3.06,5.59-3.06a75.83,75.83,0,0,1,8.47.54l1.62-8.65a70,70,0,0,0-10.27-.9c-13,0-17.48,5.95-17.31,13"/><path class="cls-3" d="M188.42,178.3h-9.56l.18-4c-2.88,3.06-6.85,4.51-12.08,4.51-6.13,0-10.45-4.15-10.45-10.27,0-9.19,7.39-14.6,20.19-14.6a45.82,45.82,0,0,1,4.69.18,7.21,7.21,0,0,0,.36-2.34c0-2.52-2-3.61-7.39-3.61a47.85,47.85,0,0,0-9.37,1.08l-1.62.54-1.08.18,1.62-8.47a47.25,47.25,0,0,1,13.7-2.16c9.91,0,15.14,4,15.14,11.18,0,2-.18,3.24-1.08,7.57l-2.34,13.34L189,174l-.36,2-.18,1.26Zm-7.75-16.94a15.62,15.62,0,0,0-2.7-.18c-6.49,0-9.73,2-9.73,5.77,0,2.34,1.62,3.78,4.15,3.78,4.69,0,8.11-3.78,8.29-9.37"/><path class="cls-3" d="M225.91,177.4A41.82,41.82,0,0,1,214.2,179c-12.8,0-19.47-5.95-19.47-17.12,0-13,8.47-22.53,20-22.53,9.55,0,15.5,5.41,15.5,13.7a32.12,32.12,0,0,1-1.44,9.37H206.08a4.06,4.06,0,0,0-.18,1.26c0,4.33,3.42,6.67,10.09,6.67a28.27,28.27,0,0,0,11.9-2.52Zm-5.41-22.53v-2c0-3.06-2-4.87-5.41-4.87-3.61,0-6.31,2.34-7.39,6.85Z"/><path class="cls-3" d="M348.13,161C346.5,173.61,337.67,179.2,326,179.2c-13,0-18.21-7.75-18.21-17.49,0-13.34,8.83-22.53,22.53-22.53,11.9,0,18.21,7.57,18.21,17.13a19.82,19.82,0,0,1-.36,4.69m-11.54-4.51c0-4-1.62-7.75-6.31-7.75-5.77,0-9.55,7-9.55,13,0,5.23,2.52,8.65,6.67,8.65,2.52,0,7.75-3.43,8.83-9.37a32.46,32.46,0,0,0,.36-4.51"/><path class="cls-4" d="M349.39,172.53a3,3,0,0,1,3.07-2.88,2.85,2.85,0,0,1,2.88,2.88,3,3,0,0,1-2.88,3.06,3.16,3.16,0,0,1-3.07-3.06m3.07,2.34a2.23,2.23,0,0,0,2.16-2.34,2.08,2.08,0,0,0-2.16-2.16,2.24,2.24,0,0,0-2.34,2.16,2.39,2.39,0,0,0,2.34,2.34m-.36-1.08h-.72v-2.52h1.08c.36,0,.54,0,.72.18s.36.36.36.54c0,.36-.18.72-.54.72l.54,1.08h-.72l-.36-.9h-.36Zm0-1.44h.72v-.54h-.72Z"/><polygon class="cls-4" points="154.17 175.59 142.63 175.59 149.48 139.72 133.8 175.59 123.35 175.59 121.54 139.9 114.69 175.59 104.24 175.59 113.07 128.91 131.1 128.91 132 157.75 144.62 128.91 163.18 128.91 154.17 175.59"/><path class="cls-4" d="M282.15,175.05a29,29,0,0,1-8.29,1.26c-5.77,0-9-2.88-9-8.29a24.48,24.48,0,0,1,.36-3.42l.72-3.78.54-2.88,5.23-29h11.35l-1.62,8.65h5.95l-1.62,9.19h-5.95l-2.88,15.86a9.09,9.09,0,0,0-.36,1.62c0,2,1.26,2.88,4,2.88a13,13,0,0,0,3.07-.36Z"/><path class="cls-3" d="M311.54,148.56l-.18-1.26,2.16-5.95c-.54,0-.72,0-.9-.18a2.19,2.19,0,0,1-.9-.18h-1.08c-3.78,0-6.49,1.62-10.09,6.13l1.26-6.85H289.9l-7,38h11.36c1.62-8.83,2.34-13.7,3.25-17.85,1.44-6.85,6.49-9.91,10.27-9.19a3.52,3.52,0,0,1,1.26.18l.72.36Z"/><path class="cls-4" d="M315.5,137.92a3.12,3.12,0,0,0-1.26-.36c-.54-.18-.9-.18-.9-.36h-1.26c-3.79,0-6.49,1.62-9.92,6.13l1.08-5.77H292.79l-7,38h11.54c4.15-23.25,5.77-27.4,11.36-27.4.36,0,.9.18,1.44.18l1.26.36Z"/><path class="cls-4" d="M236.73,149.64c0,4.69,2.7,8.11,8.83,10.45,4.69,2,5.41,2.52,5.41,4.33,0,2.34-2.16,3.42-6.67,3.42a37,37,0,0,1-10.45-1.62l-1.44,8.83h.54l2,.54c.72,0,1.8.18,3.07.18a46.19,46.19,0,0,0,6.49.36c12.08,0,17.84-4,17.84-12.62,0-5.23-2.34-8.29-8.29-10.64-4.87-1.8-5.41-2.34-5.41-4.14,0-2,2-3.07,5.77-3.07a73.22,73.22,0,0,1,8.29.54l1.62-8.65a68.15,68.15,0,0,0-10.09-.72c-13,0-17.48,5.77-17.48,12.8"/><path class="cls-4" d="M191.3,175.59h-9.37l.18-4c-2.88,3.06-6.85,4.51-12.08,4.51-6.13,0-10.46-4.15-10.46-10.27,0-9.19,7.39-14.6,20.19-14.6a45.46,45.46,0,0,1,4.69.18,7.2,7.2,0,0,0,.36-2.34c0-2.52-2-3.43-7.39-3.43a48.51,48.51,0,0,0-9.37.9l-1.62.54-1.08.18,1.62-8.47a52.08,52.08,0,0,1,13.7-2c9.92,0,15,3.79,15,11a40.08,40.08,0,0,1-.9,7.57l-2.34,13.52-.36,2.34-.36,2-.18,1.26ZM183,158.65a14.78,14.78,0,0,0-2.52-.18c-6.49,0-9.73,2-9.73,5.77a3.69,3.69,0,0,0,4,4c4.69,0,8.11-4,8.29-9.55"/><path class="cls-4" d="M229,174.69a43.69,43.69,0,0,1-11.72,1.62c-12.8,0-19.47-5.95-19.47-17.12,0-13,8.47-22.53,20-22.53,9.37,0,15.32,5.41,15.32,13.7a38.46,38.46,0,0,1-1.26,9.37H209V161c0,4.33,3.24,6.67,9.91,6.67a30.44,30.44,0,0,0,11.9-2.34Zm-6.13-22.53v-2c0-3.06-2-4.87-5.41-4.87-3.61,0-6.13,2.52-7.21,6.85Z"/><path class="cls-4" d="M351.19,158.29c-1.8,12.62-10.63,18.21-22.35,18.21-12.8,0-18-7.75-18-17.48,0-13.34,8.83-22.53,22.53-22.53,11.9,0,18.21,7.57,18.21,17.12a19.78,19.78,0,0,1-.36,4.69m-11.9-4.87c0-4-1.62-7.57-6.31-7.57-5.77,0-9.37,6.85-9.37,13,0,5,2.52,8.47,6.49,8.47,2.52,0,7.93-3.42,8.83-9.19a19.76,19.76,0,0,0,.36-4.69"/></svg>