<svg id="Layer_1" data-name="Layer 1" xmlns="http://www.w3.org/2000/svg" viewBox="0 0 454.71 305.22"><defs><style>.cls-1{fill:#606060;}.cls-2{fill:#38383d;}</style></defs><title>weboldal ikonok</title><path class="cls-1" d="M290.83,131.75c-1.47,9.65-8.83,9.65-16,9.65h-4.05l2.84-18a2.24,2.24,0,0,1,2.21-1.89h1.86c4.85,0,9.43,0,11.79,2.76,1.41,1.65,1.84,4.11,1.3,7.49m-3.1-25.16H260.86a3.74,3.74,0,0,0-3.69,3.15l-10.86,68.9a2.24,2.24,0,0,0,1.87,2.56l.34,0h13.79a2.61,2.61,0,0,0,2.58-2.2L268,159.48a3.74,3.74,0,0,1,3.69-3.15h8.5c17.7,0,27.92-8.56,30.58-25.54,1.2-7.42,0-13.26-3.43-17.34-3.82-4.49-10.59-6.87-19.58-6.87"/><path class="cls-2" d="M99.18,131.75c-1.47,9.65-8.83,9.65-16,9.65H79.17l2.84-18a2.24,2.24,0,0,1,2.21-1.89h1.86c4.85,0,9.43,0,11.79,2.76,1.41,1.65,1.84,4.11,1.31,7.49m-3.1-25.16H69.21a3.74,3.74,0,0,0-3.69,3.15l-10.86,68.9a2.24,2.24,0,0,0,1.86,2.56l.35,0H69.71a3.73,3.73,0,0,0,3.69-3.15l2.93-18.59A3.73,3.73,0,0,1,80,156.33h8.5c17.7,0,27.92-8.56,30.58-25.54,1.2-7.42,0-13.26-3.43-17.34-3.82-4.49-10.59-6.87-19.59-6.87m62.38,49.9a14.35,14.35,0,0,1-14.52,12.29c-3.73,0-6.72-1.2-8.64-3.48s-2.62-5.46-2-9a14.4,14.4,0,0,1,14.42-12.38c3.65,0,6.62,1.21,8.58,3.51a11.08,11.08,0,0,1,2.18,9.1m17.93-25H163.53a2.24,2.24,0,0,0-2.22,1.89l-.56,3.6-.9-1.3c-2.78-4-9-5.4-15.2-5.4-14.22,0-26.36,10.78-28.72,25.88-1.23,7.54.52,14.74,4.79,19.77,3.92,4.62,9.53,6.54,16.2,6.54a24.63,24.63,0,0,0,17.81-7.36l-.57,3.58A2.24,2.24,0,0,0,156,181.2l.35,0H168a3.74,3.74,0,0,0,3.69-3.15l7-44a2.24,2.24,0,0,0-1.87-2.56l-.35,0"/><path class="cls-1" d="M350.12,156.49a14.35,14.35,0,0,1-14.52,12.29c-3.73,0-6.72-1.2-8.64-3.48s-2.62-5.46-2-9a14.4,14.4,0,0,1,14.42-12.38c3.65,0,6.62,1.21,8.58,3.51a11.08,11.08,0,0,1,2.18,9.1m17.93-25H355.18a2.24,2.24,0,0,0-2.22,1.89l-.56,3.6-.9-1.3c-2.78-4-9-5.4-15.2-5.4-14.21,0-26.35,10.78-28.72,25.88-1.23,7.54.52,14.74,4.79,19.77,3.92,4.62,9.53,6.54,16.2,6.54a24.64,24.64,0,0,0,17.82-7.36l-.57,3.58a2.23,2.23,0,0,0,1.85,2.56,2.18,2.18,0,0,0,.36,0h11.58a3.74,3.74,0,0,0,3.69-3.15l7-44a2.24,2.24,0,0,0-1.87-2.56l-.35,0"/><path class="cls-2" d="M244.93,131.44H232a3.72,3.72,0,0,0-3.08,1.64l-17.84,26.27-7.56-25.25a3.74,3.74,0,0,0-3.58-2.67H187.21a2.24,2.24,0,0,0-2.12,3l14.24,41.8-13.39,18.9a2.24,2.24,0,0,0,1.83,3.53h12.92a3.74,3.74,0,0,0,3.07-1.6l43-62.07a2.24,2.24,0,0,0-1.84-3.52"/><path class="cls-1" d="M383.21,108.48l-11,70.16A2.24,2.24,0,0,0,374,181.2l.35,0h11.09a3.74,3.74,0,0,0,3.69-3.15L400,109.18a2.24,2.24,0,0,0-1.86-2.56l-.35,0H385.42a2.23,2.23,0,0,0-2.21,1.89"/></svg>