<?xml version="1.0" encoding="utf-8"?>
<!-- Generator: Adobe Illustrator 26.0.0, SVG Export Plug-In . SVG Version: 6.00 Build 0)  -->
<svg version="1.1" xmlns="http://www.w3.org/2000/svg" xmlns:xlink="http://www.w3.org/1999/xlink" x="0px" y="0px"
	 viewBox="0 0 50 50" style="enable-background:new 0 0 50 50;" xml:space="preserve">
<style type="text/css">
	.st0{fill:none;stroke:#141613;stroke-width:0.4321;stroke-miterlimit:10;}
	.st1{fill:#141613;}
	.st2{fill:none;stroke:#141613;stroke-width:0.75;stroke-miterlimit:10;}
	.st3{fill:none;stroke:#141613;stroke-width:2;stroke-miterlimit:10;}
	.st4{fill-rule:evenodd;clip-rule:evenodd;fill:#141613;}
	.st5{fill:#002338;}
</style>
<g id="BACKGROUND">
</g>
<g id="OBJECTS">
	<g>
		<g>
			<path id="XMLID_693_" class="st0" d="M359.23,116.75L359.23,116.75c-12.83,0-23.23-10.4-23.23-23.23l0,0
				c0-12.83,10.4-23.23,23.23-23.23l0,0c12.83,0,23.23,10.4,23.23,23.23l0,0C382.46,106.35,372.06,116.75,359.23,116.75z"/>
		</g>
		<path id="XMLID_670_" class="st1" d="M348.26,101.35c1.99,1.28,4.36,2.02,6.9,2.02c8.36,0,13.08-7.06,12.8-13.4
			c0.88-0.63,1.64-1.43,2.25-2.33c-0.81,0.36-1.68,0.6-2.59,0.71c0.93-0.56,1.64-1.44,1.98-2.49c-0.87,0.52-1.83,0.89-2.86,1.09
			c-0.82-0.88-1.99-1.42-3.29-1.42c-2.91,0-5.04,2.71-4.39,5.53c-3.74-0.19-7.06-1.98-9.28-4.71c-1.18,2.02-0.61,4.67,1.39,6.01
			c-0.74-0.02-1.43-0.23-2.04-0.56c-0.05,2.09,1.45,4.04,3.61,4.47c-0.63,0.17-1.33,0.21-2.03,0.08c0.57,1.79,2.24,3.09,4.21,3.13
			C353.03,100.97,350.65,101.64,348.26,101.35z"/>
	</g>
	<g>
		<g>
			<path id="XMLID_691_" class="st0" d="M516.28-38L516.28-38c-12.83,0-23.23-10.4-23.23-23.23l0,0c0-12.83,10.4-23.23,23.23-23.23
				l0,0c12.83,0,23.23,10.4,23.23,23.23l0,0C539.51-48.4,529.11-38,516.28-38z"/>
		</g>
		<path id="XMLID_660_" class="st1" d="M516.28-73.28c-6.65,0-12.04,5.39-12.04,12.04c0,6.65,5.39,12.04,12.04,12.04
			c6.65,0,12.04-5.39,12.04-12.04C528.32-67.89,522.93-73.28,516.28-73.28z M521.82-55.88c-0.24,0.36-0.66,0.48-1.02,0.24
			c-2.83-1.75-6.38-2.11-10.6-1.14c-0.42,0.12-0.78-0.18-0.9-0.54c-0.12-0.42,0.18-0.78,0.54-0.9c4.58-1.02,8.55-0.6,11.68,1.32
			C521.94-56.72,522-56.24,521.82-55.88z M523.26-59.19c-0.3,0.42-0.84,0.6-1.26,0.3c-3.25-1.99-8.19-2.59-11.98-1.39
			c-0.48,0.12-1.02-0.12-1.14-0.6c-0.12-0.48,0.12-1.02,0.6-1.14c4.4-1.32,9.82-0.66,13.55,1.63
			C523.38-60.21,523.56-59.61,523.26-59.19z M523.38-62.56c-3.85-2.29-10.3-2.53-13.97-1.39c-0.6,0.18-1.2-0.18-1.39-0.72
			c-0.18-0.6,0.18-1.2,0.72-1.39c4.28-1.26,11.32-1.02,15.78,1.63c0.54,0.3,0.72,1.02,0.42,1.57
			C524.65-62.44,523.93-62.26,523.38-62.56z"/>
	</g>
	<g>
		<path id="XMLID_699_" class="st2" d="M359.23,39.37L359.23,39.37c-12.83,0-23.23-10.4-23.23-23.23l0,0
			c0-12.83,10.4-23.23,23.23-23.23l0,0c12.83,0,23.23,10.4,23.23,23.23l0,0C382.46,28.97,372.06,39.37,359.23,39.37z"/>
		<path id="XMLID_659_" class="st1" d="M356.09,28.59h5.01V16.04h3.5l0.37-4.2h-3.87c0,0,0-1.57,0-2.39c0-0.99,0.2-1.38,1.16-1.38
			c0.77,0,2.71,0,2.71,0V3.69c0,0-2.86,0-3.47,0c-3.73,0-5.41,1.64-5.41,4.79c0,2.74,0,3.35,0,3.35h-2.61v4.26h2.61V28.59z"/>
	</g>
	<g>
		<g>
			<path id="XMLID_696_" class="st2" d="M202.19,116.75L202.19,116.75c-12.83,0-23.23-10.4-23.23-23.23l0,0
				c0-12.83,10.4-23.23,23.23-23.23l0,0c12.83,0,23.23,10.4,23.23,23.23l0,0C225.42,106.35,215.02,116.75,202.19,116.75z"/>
		</g>
		<g id="XMLID_649_">
			<path id="XMLID_656_" class="st1" d="M202.19,84.26c3.02,0,3.37,0.01,4.56,0.07c1.1,0.05,1.7,0.23,2.1,0.39
				c0.53,0.2,0.9,0.45,1.3,0.84c0.4,0.4,0.64,0.77,0.84,1.3c0.15,0.4,0.34,1,0.39,2.1c0.05,1.19,0.07,1.55,0.07,4.56
				c0,3.02-0.01,3.37-0.07,4.56c-0.05,1.1-0.23,1.7-0.39,2.1c-0.2,0.53-0.45,0.9-0.84,1.3c-0.4,0.4-0.77,0.64-1.3,0.84
				c-0.4,0.15-1,0.34-2.1,0.39c-1.19,0.05-1.55,0.07-4.56,0.07c-3.02,0-3.37-0.01-4.56-0.07c-1.1-0.05-1.7-0.23-2.1-0.39
				c-0.53-0.2-0.9-0.45-1.3-0.84c-0.4-0.4-0.64-0.77-0.84-1.3c-0.15-0.4-0.34-1-0.39-2.1c-0.05-1.19-0.07-1.55-0.07-4.56
				c0-3.02,0.01-3.37,0.07-4.56c0.05-1.1,0.23-1.7,0.39-2.1c0.21-0.53,0.45-0.9,0.84-1.3c0.4-0.4,0.77-0.64,1.3-0.84
				c0.4-0.15,1-0.34,2.1-0.39C198.81,84.27,199.17,84.26,202.19,84.26 M202.19,82.23c-3.07,0-3.45,0.01-4.66,0.07
				c-1.2,0.05-2.02,0.25-2.74,0.53c-0.74,0.29-1.37,0.67-2,1.3c-0.63,0.63-1.01,1.26-1.3,2c-0.28,0.72-0.47,1.54-0.52,2.74
				c-0.06,1.2-0.07,1.59-0.07,4.66s0.01,3.45,0.07,4.66c0.05,1.2,0.25,2.02,0.52,2.74c0.29,0.74,0.67,1.37,1.3,2
				c0.63,0.63,1.26,1.01,2,1.3c0.72,0.28,1.54,0.47,2.74,0.53c1.2,0.05,1.59,0.07,4.66,0.07s3.45-0.01,4.66-0.07
				c1.2-0.05,2.02-0.25,2.74-0.53c0.74-0.29,1.37-0.67,2-1.3c0.63-0.63,1.01-1.26,1.3-2c0.28-0.72,0.47-1.54,0.53-2.74
				c0.05-1.2,0.07-1.59,0.07-4.66s-0.01-3.45-0.07-4.66c-0.05-1.2-0.25-2.02-0.53-2.74c-0.29-0.74-0.67-1.37-1.3-2
				c-0.63-0.63-1.26-1.01-2-1.3c-0.72-0.28-1.54-0.47-2.74-0.53C205.64,82.24,205.26,82.23,202.19,82.23"/>
			<path id="XMLID_653_" class="st1" d="M202.19,87.72c-3.2,0-5.8,2.6-5.8,5.8s2.6,5.8,5.8,5.8c3.2,0,5.8-2.6,5.8-5.8
				S205.39,87.72,202.19,87.72 M202.19,97.28c-2.08,0-3.76-1.69-3.76-3.76c0-2.08,1.69-3.76,3.76-3.76s3.76,1.69,3.76,3.76
				C205.95,95.6,204.27,97.28,202.19,97.28"/>
			<path id="XMLID_652_" class="st1" d="M209.57,87.49c0,0.75-0.61,1.36-1.36,1.36c-0.75,0-1.36-0.61-1.36-1.36
				c0-0.75,0.61-1.36,1.36-1.36C208.97,86.14,209.57,86.74,209.57,87.49"/>
		</g>
	</g>
	<g>
		<path id="XMLID_698_" class="st3" d="M25,48.17L25,48.17c-12.83,0-23.23-10.4-23.23-23.23l0,0C1.77,12.1,12.17,1.7,25,1.7l0,0
			c12.83,0,23.23,10.4,23.23,23.23l0,0C48.23,37.77,37.83,48.17,25,48.17z"/>
		<path id="XMLID_646_" class="st1" d="M18.41,26.85c0.32,0.13,0.61,0.01,0.7-0.35c0.06-0.25,0.22-0.87,0.29-1.13
			c0.09-0.35,0.06-0.48-0.2-0.78c-0.57-0.67-0.93-1.53-0.93-2.76c0-3.55,2.66-6.73,6.92-6.73c3.77,0,5.85,2.31,5.85,5.39
			c0,4.05-1.79,7.47-4.46,7.47c-1.47,0-2.57-1.22-2.22-2.71c0.42-1.78,1.24-3.7,1.24-4.99c0-1.15-0.62-2.11-1.9-2.11
			c-1.5,0-2.71,1.55-2.71,3.64c0,1.33,0.45,2.22,0.45,2.22s-1.54,6.52-1.81,7.66c-0.54,2.27-0.08,5.06-0.04,5.34
			c0.02,0.17,0.24,0.21,0.33,0.08c0.14-0.18,1.93-2.39,2.54-4.6c0.17-0.62,0.99-3.86,0.99-3.86c0.49,0.93,1.92,1.75,3.43,1.75
			c4.52,0,7.58-4.12,7.58-9.63c0-4.17-3.53-8.05-8.9-8.05c-6.68,0-10.04,4.79-10.04,8.78C15.53,23.9,16.45,26.05,18.41,26.85z"/>
	</g>
	<g>
		<g>
			<path id="XMLID_690_" class="st0" d="M437.76,116.75L437.76,116.75c-12.83,0-23.23-10.4-23.23-23.23l0,0
				c0-12.83,10.4-23.23,23.23-23.23l0,0c12.83,0,23.23,10.4,23.23,23.23l0,0C460.99,106.35,450.59,116.75,437.76,116.75z"/>
		</g>
		<path id="XMLID_615_" class="st4" d="M449.69,99.06L449.69,99.06c-0.01-0.01-0.01-0.01-0.02-0.02c0,0,0,0-0.01,0l0,0
			c-0.29-0.18-0.59-0.21-0.77-0.28c-0.01,0-0.01,0-0.01-0.01c-1.26-0.4-2.36-1.26-3.17-2.31c-0.45-0.59-0.83-1.22-1.09-1.9
			c0-0.01,0-0.01,0-0.01c-0.1-0.29-0.11-0.62,0.04-0.81c0,0,0.01,0,0.01-0.01c0.23-0.32,0.65-0.53,1.09-0.69c0.01,0,0.01,0,0.01,0
			c0.5-0.17,1.04-0.37,1.48-0.76c0.01,0,0.01-0.01,0.01-0.01c0.07-0.06,0.15-0.15,0.21-0.27c0.01-0.03,0.03-0.06,0.03-0.1
			c0.03-0.12,0.03-0.26-0.03-0.39c0-0.01,0-0.01,0-0.01c-0.13-0.26-0.35-0.4-0.51-0.49h-0.01c-0.27-0.16-0.6-0.17-0.88-0.08l0,0
			h-0.01c-0.3,0.09-0.55,0.2-0.78,0.23c-0.01,0-0.01,0-0.02,0.01c-0.32,0.06-0.64,0.07-0.89-0.02c-0.01-0.03-0.01-0.11-0.02-0.2
			h0.01c-0.02-0.54,0.03-1.09,0.03-1.67c0,0,0,0,0-0.01c0.03-0.87,0.06-1.77-0.07-2.68c0-0.01,0-0.01,0-0.01
			c-0.29-1.53-1.26-2.84-2.51-3.72c-0.9-0.64-1.98-0.99-3.07-1.09l0,0c-0.38-0.03-0.74-0.04-1.1-0.04c-1.47,0.01-3,0.4-4.19,1.33
			c-0.9,0.7-1.6,1.63-2.04,2.66v0.01c-0.43,1.06-0.39,2.2-0.33,3.25l0,0c0.03,0.74,0.12,1.46,0.05,2.14
			c-0.01,0.02-0.01,0.03-0.01,0.04c-0.33,0.06-0.69,0.04-1.05-0.03h-0.01c-0.25-0.04-0.51-0.14-0.81-0.22c-0.01,0-0.01,0-0.02-0.01
			c-0.29-0.06-0.57,0.02-0.78,0.18c-0.01,0-0.01,0-0.01,0.01c-0.01,0.01-0.01,0.01-0.01,0.01c-0.18,0.11-0.42,0.31-0.43,0.64
			c-0.01,0.02,0,0.04,0,0.06c0.01,0,0,0.01,0.01,0.01c0.03,0.2,0.16,0.34,0.27,0.44c0.11,0.1,0.21,0.16,0.27,0.21
			c0.01,0,0.01,0.01,0.02,0.01c0.54,0.36,1.13,0.51,1.65,0.72l0,0c0.36,0.16,0.67,0.4,0.74,0.71c0.09,0.39-0.08,0.83-0.29,1.27v0.01
			c-0.58,1.14-1.44,2.14-2.51,2.87c-0.56,0.38-1.19,0.67-1.84,0.84c-0.01,0-0.02,0.01-0.03,0.01c-0.13,0.05-0.45,0.08-0.65,0.38
			c-0.01,0.02-0.02,0.04-0.03,0.07c-0.07,0.19,0.01,0.4,0.11,0.51c0.09,0.11,0.19,0.17,0.28,0.22c0.01,0,0.01,0.01,0.02,0.01
			c0.55,0.32,1.15,0.45,1.7,0.59c0.01,0,0.01,0.01,0.01,0.01c0.4,0.08,0.77,0.13,1.06,0.26c0.01,0.02,0.04,0.12,0.11,0.29
			c0.1,0.3,0.15,0.65,0.26,1.03c0.03,0.1,0.12,0.18,0.23,0.21c0.25,0.06,0.39-0.03,0.41-0.03c0.01,0,0.02,0,0.03,0
			c0.92-0.16,1.84-0.3,2.69-0.1l0,0c0.88,0.24,1.66,0.85,2.52,1.37v0.01l0,0c0.58,0.36,1.24,0.71,2.02,0.74l0,0c0,0,0,0,0.01,0
			c0.58,0.03,1.15-0.01,1.71-0.04c0.01,0,0.01,0,0.01,0c0.48-0.04,0.93-0.21,1.34-0.46c0.01-0.01,0.01-0.01,0.02-0.01
			c0.91-0.52,1.72-1.14,2.61-1.53h0.01c0.29-0.1,0.65-0.1,1.05-0.12c0.01,0,0.01,0,0.01,0c0.74-0.02,1.47,0.02,2.21,0.11
			c0.02,0.01,0.05,0.01,0.07,0c0.1-0.01,0.2-0.08,0.25-0.14c0.06-0.06,0.07-0.12,0.08-0.16c0.02-0.07,0.04-0.11,0.01-0.04
			c0.01-0.02,0.02-0.04,0.03-0.06c0.13-0.44,0.21-0.84,0.43-1.09c0.1-0.1,0.26-0.14,0.45-0.14c0.01,0,0.03,0,0.04,0
			c0.64-0.07,1.21-0.3,1.75-0.49c0.01-0.01,0.02-0.01,0.02-0.01c0.2-0.09,0.5-0.19,0.71-0.48c0,0,0,0,0-0.01l0,0
			C450.02,99.54,449.93,99.21,449.69,99.06L449.69,99.06z"/>
	</g>
	<g>
		<path id="XMLID_697_" class="st0" d="M437.76-38L437.76-38c-12.83,0-23.23-10.4-23.23-23.23l0,0c0-12.83,10.4-23.23,23.23-23.23
			l0,0c12.83,0,23.23,10.4,23.23,23.23l0,0C460.99-48.4,450.59-38,437.76-38z"/>
		<path id="XMLID_614_" class="st1" d="M446.03-71.34c-3.24-0.1-5.43,1.72-6.58,5.49c0.59-0.25,1.17-0.38,1.73-0.38
			c1.19,0,1.71,0.67,1.57,2c-0.07,0.81-0.59,1.98-1.57,3.53c-0.98,1.55-1.71,2.32-2.2,2.32c-0.63,0-1.21-1.19-1.73-3.57
			c-0.18-0.7-0.49-2.49-0.95-5.36c-0.42-2.66-1.54-3.91-3.36-3.73c-0.77,0.07-1.92,0.77-3.46,2.1c-1.12,1.01-2.26,2.03-3.41,3.04
			l1.1,1.42c1.05-0.73,1.66-1.1,1.83-1.1c0.8,0,1.55,1.26,2.25,3.77c0.63,2.31,1.26,4.61,1.89,6.92c0.94,2.52,2.09,3.77,3.46,3.77
			c2.2,0,4.89-2.06,8.06-6.2c3.07-3.95,4.66-7.07,4.76-9.35C449.56-69.71,448.43-71.27,446.03-71.34z"/>
	</g>
	<g>
		<path id="XMLID_695_" class="st0" d="M202.19-38L202.19-38c-12.83,0-23.23-10.4-23.23-23.23l0,0c0-12.83,10.4-23.23,23.23-23.23
			l0,0c12.83,0,23.23,10.4,23.23,23.23l0,0C225.42-48.4,215.02-38,202.19-38z"/>
		<g>
			<g>
				<path class="st1" d="M205.19-63.84c0.38,0,0.91-0.2,1.45-0.84v0.75h1.25v-6.75h-1.25v5.12c-0.15,0.19-0.49,0.51-0.74,0.51
					c-0.27,0-0.33-0.18-0.33-0.45v-5.18h-1.26v5.64C204.31-64.38,204.52-63.84,205.19-63.84z"/>
				<path class="st1" d="M199.6-65.62c0,1.19,0.62,1.81,1.84,1.81c1.01,0,1.8-0.67,1.8-1.81v-3.31c0-1.06-0.79-1.81-1.8-1.81
					c-1.11,0-1.84,0.73-1.84,1.81V-65.62z M200.89-68.82c0-0.37,0.17-0.64,0.52-0.64c0.38,0,0.55,0.27,0.55,0.64v3.14
					c0,0.37-0.19,0.64-0.53,0.64c-0.35,0-0.55-0.28-0.55-0.64V-68.82z"/>
				<polygon class="st1" points="196.61,-63.94 198.02,-63.94 198.02,-67.65 199.67,-73.09 198.23,-73.09 197.32,-69.44 
					196.35,-73.09 194.93,-73.09 196.61,-67.65 				"/>
			</g>
			<g>
				<path class="st1" d="M209.59-62.4h-14.8c-1.59,0-2.88,1.29-2.88,2.88v7.27c0,1.59,1.29,2.88,2.88,2.88h14.8
					c1.59,0,2.88-1.29,2.88-2.88v-7.27C212.47-61.11,211.18-62.4,209.59-62.4z M196.76-51.53h-1.35v-7.45h-1.39v-1.27h4.13v1.27
					h-1.39V-51.53z M201.55-51.53h-1.2v-0.71c-0.22,0.26-0.45,0.46-0.69,0.6c-0.64,0.37-1.53,0.36-1.53-0.94v-5.37h1.2v4.93
					c0,0.26,0.06,0.43,0.32,0.43c0.23,0,0.56-0.3,0.7-0.48v-4.88h1.2V-51.53z M206.15-52.86c0,0.8-0.3,1.41-1.09,1.41
					c-0.44,0-0.8-0.16-1.14-0.58v0.49h-1.21v-8.72h1.21v2.81c0.27-0.33,0.64-0.6,1.06-0.6c0.88,0,1.17,0.74,1.17,1.61V-52.86z
					 M210.57-54.59h-2.29v1.21c0,0.48,0.04,0.9,0.52,0.9c0.5,0,0.53-0.34,0.53-0.9v-0.45h1.23v0.48c0,1.24-0.53,1.99-1.79,1.99
					c-1.14,0-1.73-0.83-1.73-1.99v-2.89c0-1.12,0.74-1.89,1.82-1.89c1.15,0,1.7,0.73,1.7,1.89V-54.59z"/>
				<path class="st1" d="M208.82-57c-0.44,0-0.53,0.31-0.53,0.75v0.65h1.06v-0.65C209.34-56.68,209.25-57,208.82-57z"/>
				<path class="st1" d="M204.17-56.96c-0.08,0.04-0.17,0.11-0.25,0.2v4.01c0.1,0.1,0.19,0.18,0.28,0.23
					c0.19,0.1,0.48,0.11,0.61-0.07c0.07-0.09,0.1-0.24,0.1-0.44v-3.32c0-0.22-0.04-0.38-0.13-0.49
					C204.65-57.04,204.38-57.06,204.17-56.96z"/>
			</g>
		</g>
	</g>
	<g>
		<g>
			<path id="XMLID_689_" class="st0" d="M437.76,39.37L437.76,39.37c-12.83,0-23.23-10.4-23.23-23.23l0,0
				c0-12.83,10.4-23.23,23.23-23.23l0,0c12.83,0,23.23,10.4,23.23,23.23l0,0C460.99,28.97,450.59,39.37,437.76,39.37z"/>
		</g>
		<g>
			<g>
				<path class="st1" d="M423.82,16.51c-0.01-0.07-0.06-0.12-0.12-0.12c-0.06,0-0.12,0.05-0.12,0.12l-0.29,2.69l0.29,2.63
					c0.01,0.07,0.06,0.12,0.12,0.12c0.06,0,0.11-0.05,0.12-0.12l0.34-2.63L423.82,16.51z"/>
				<path class="st1" d="M428.47,14.03c-0.12,0-0.22,0.1-0.23,0.22l-0.23,4.95l0.23,3.2c0.01,0.13,0.11,0.22,0.23,0.22
					c0.12,0,0.22-0.1,0.23-0.22v0l0.27-3.2l-0.27-4.95C428.69,14.13,428.59,14.03,428.47,14.03z"/>
				<path class="st1" d="M426.06,15.75c-0.09,0-0.17,0.07-0.18,0.17l-0.26,3.28l0.26,3.18c0.01,0.1,0.08,0.17,0.18,0.17
					c0.09,0,0.17-0.07,0.18-0.17l0.3-3.18l-0.3-3.28C426.23,15.82,426.16,15.75,426.06,15.75z"/>
				<path class="st1" d="M430.91,22.63c0.15,0,0.27-0.12,0.28-0.28l0.23-3.15l-0.23-6.6c-0.01-0.15-0.13-0.28-0.28-0.28
					c-0.15,0-0.27,0.12-0.28,0.28l-0.2,6.59l0.2,3.15C430.64,22.51,430.76,22.63,430.91,22.63z"/>
				<path class="st1" d="M435.91,22.64c0.21,0,0.38-0.17,0.38-0.38v0v0l0.16-3.06l-0.16-7.62c0-0.21-0.17-0.38-0.38-0.38
					c-0.21,0-0.38,0.17-0.38,0.38l-0.14,7.61c0,0,0.14,3.06,0.14,3.06C435.53,22.47,435.7,22.64,435.91,22.64z"/>
				<path class="st1" d="M433.39,22.63c0.18,0,0.32-0.14,0.33-0.33v0l0.2-3.1l-0.2-6.64c0-0.18-0.15-0.33-0.33-0.33
					c-0.18,0-0.33,0.14-0.33,0.33l-0.17,6.64l0.17,3.1C433.07,22.49,433.21,22.63,433.39,22.63z"/>
			</g>
			<path class="st1" d="M448.54,15.28c-0.51,0-0.99,0.1-1.43,0.29c-0.29-3.32-3.08-5.93-6.48-5.93c-0.83,0-1.64,0.16-2.36,0.44
				c-0.28,0.11-0.35,0.22-0.35,0.43v11.7c0,0.23,0.18,0.41,0.4,0.44c0.01,0,10.16,0.01,10.22,0.01c2.04,0,3.69-1.65,3.69-3.69
				C452.23,16.93,450.58,15.28,448.54,15.28z"/>
		</g>
	</g>
	<g>
		<g>
			<path id="XMLID_681_" class="st0" d="M516.28,116.75L516.28,116.75c-12.83,0-23.23-10.4-23.23-23.23l0,0
				c0-12.83,10.4-23.23,23.23-23.23l0,0c12.83,0,23.23,10.4,23.23,23.23l0,0C539.51,106.35,529.11,116.75,516.28,116.75z"/>
		</g>
		<g>
			<path class="st1" d="M507.14,82.64v4.02c4.26,0.02,8.27,1.69,11.29,4.7c3.02,3.02,4.69,7.04,4.7,11.31h4.02
				C527.12,91.63,518.18,82.68,507.14,82.64z"/>
			<path class="st1" d="M509.85,97.25c-1.5,0-2.71,1.21-2.71,2.71c0,1.5,1.21,2.71,2.71,2.71c1.5,0,2.71-1.21,2.71-2.71
				C512.56,98.46,511.35,97.25,509.85,97.25z"/>
			<path class="st1" d="M507.14,89.47v4.02c5.04,0.05,9.14,4.14,9.19,9.19h4.02C520.29,95.4,514.41,89.52,507.14,89.47z"/>
		</g>
	</g>
	<g>
		<g>
			<path id="XMLID_686_" class="st0" d="M516.28,39.37L516.28,39.37c-12.83,0-23.23-10.4-23.23-23.23l0,0
				c0-12.83,10.4-23.23,23.23-23.23l0,0c12.83,0,23.23,10.4,23.23,23.23l0,0C539.51,28.97,529.11,39.37,516.28,39.37z"/>
		</g>
		<path class="st1" d="M524.22,6.48c-0.69,0.23-2.17,1.67-0.3,4.24c1.87,2.57,0.76,5.5,0.76,5.5l-1.63,5.42l-4.11-12.23
			c0,0,1.16-0.09,1.33-0.11c0.17-0.02,0.44-0.19,0.4-0.54c-0.05-0.35-0.3-0.4-0.54-0.39c-0.12,0.01-1.56,0.11-2.98,0.11
			c-1.42,0-2.82-0.11-2.92-0.11c-0.2-0.01-0.49,0.01-0.56,0.33c-0.05,0.26,0.08,0.56,0.36,0.59c0.29,0.03,0.09,0.01,1.24,0.12
			c0,0,0.78,2.14,1.77,4.85l-2.51,7.44l-4.13-12.28c0,0,1.16-0.09,1.33-0.11c0.17-0.02,0.44-0.19,0.4-0.54
			c-0.05-0.35-0.3-0.4-0.54-0.39c-0.12,0.01-1.56,0.11-2.98,0.11c-1.42,0-2.82-0.11-2.92-0.11c-0.2-0.01-0.49,0.01-0.56,0.33
			c-0.05,0.26,0.08,0.56,0.36,0.59c0.29,0.03,0.09,0.01,1.24,0.12c0,0,5.49,15.03,5.78,15.84c0.29,0.81,1.5,1.02,1.84-0.04
			c0.25-0.78,2.23-6.51,3.24-9.44c1.54,4.21,3.3,9.04,3.46,9.48c0.29,0.81,1.5,1.02,1.84-0.04c0.34-1.05,2.29-6.5,3.95-11.37
			C528.31,9.4,526.95,5.6,524.22,6.48z"/>
	</g>
	<g>
		<path id="XMLID_3_" class="st0" d="M359.23-38L359.23-38C346.4-38,336-48.4,336-61.23l0,0c0-12.83,10.4-23.23,23.23-23.23l0,0
			c12.83,0,23.23,10.4,23.23,23.23l0,0C382.46-48.4,372.06-38,359.23-38z"/>
		<g id="XMLID_821_">
			<path id="XMLID_823_" class="st1" d="M359.23-75.06c-7.63,0-13.82,6.19-13.82,13.82c0,7.63,6.19,13.82,13.82,13.82
				c7.64,0,13.82-6.19,13.82-13.82C373.06-68.87,366.87-75.06,359.23-75.06z M359.23-72.65c2.62,0,5.03,0.9,6.96,2.39
				c-1.39,1.79-3.3,3.21-5.74,4.24c-1.17-2.14-2.51-4.23-4.02-6.26C357.33-72.52,358.27-72.65,359.23-72.65z M354.08-71.41
				c1.53,2.01,2.89,4.08,4.07,6.2c-2.8,0.82-6.14,1.25-10.01,1.27C348.95-67.2,351.15-69.92,354.08-71.41z M347.81-61.23
				c0-0.1,0.01-0.2,0.02-0.29c4.43-0.01,8.26-0.52,11.46-1.52c0.27,0.55,0.53,1.1,0.77,1.65c-3.89,1.22-7.1,3.71-9.6,7.46
				C348.81-55.92,347.81-58.46,347.81-61.23z M359.23-49.81c-2.64,0-5.07-0.91-7.01-2.42c2.27-3.56,5.16-5.87,8.75-6.94
				c1.07,2.79,1.85,5.66,2.35,8.59C362.06-50.09,360.68-49.81,359.23-49.81z M365.57-51.74c-0.5-2.71-1.24-5.36-2.21-7.94
				c2.16-0.3,4.54-0.23,7.14,0.23C370-56.25,368.17-53.48,365.57-51.74z M362.44-61.96c-0.28-0.65-0.57-1.3-0.88-1.94
				c2.66-1.15,4.8-2.72,6.39-4.7c1.55,1.84,2.53,4.17,2.67,6.72C367.65-62.36,364.93-62.39,362.44-61.96z"/>
		</g>
	</g>
	<g>
		<path id="XMLID_4_" class="st0" d="M280.71-38L280.71-38c-12.83,0-23.23-10.4-23.23-23.23l0,0c0-12.83,10.4-23.23,23.23-23.23l0,0
			c12.83,0,23.23,10.4,23.23,23.23l0,0C303.94-48.4,293.54-38,280.71-38z"/>
		<g id="XMLID_810_">
			<path id="XMLID_811_" class="st4" d="M290.68-56.94c-0.55-0.27-3.23-1.58-3.73-1.76c-0.5-0.19-0.87-0.27-1.23,0.27
				c-0.36,0.54-1.42,1.76-1.73,2.11c-0.32,0.36-0.64,0.41-1.19,0.14c-0.54-0.27-2.3-0.83-4.39-2.69c-1.61-1.43-2.72-3.2-3.03-3.74
				c-0.31-0.54-0.03-0.83,0.24-1.1c0.25-0.25,0.54-0.64,0.82-0.95c0.07-0.09,0.14-0.18,0.2-0.26c0.13-0.2,0.22-0.39,0.34-0.65
				c0.19-0.36,0.09-0.68-0.04-0.95c-0.14-0.27-1.23-2.94-1.69-4.02c-0.45-1.08-0.91-0.9-1.23-0.9c-0.31,0-0.68-0.05-1.04-0.05
				c-0.36,0-0.96,0.14-1.46,0.68c-0.5,0.54-1.91,1.85-1.91,4.52c0,0.63,0.11,1.25,0.28,1.84c0.55,1.91,1.74,3.48,1.95,3.75
				c0.27,0.35,3.77,6,9.31,8.18c5.55,2.16,5.55,1.44,6.55,1.34c1-0.08,3.23-1.3,3.68-2.57c0.46-1.26,0.46-2.34,0.32-2.57
				C291.58-56.54,291.22-56.67,290.68-56.94z"/>
		</g>
	</g>
	<g>
		<path id="XMLID_5_" class="st0" d="M280.71,39.37L280.71,39.37c-12.83,0-23.23-10.4-23.23-23.23l0,0
			c0-12.83,10.4-23.23,23.23-23.23l0,0c12.83,0,23.23,10.4,23.23,23.23l0,0C303.94,28.97,293.54,39.37,280.71,39.37z"/>
		<g>
			<path class="st1" d="M287.27,11.75h-13.12c-0.29,0-0.53,0.24-0.53,0.53v11c0,0.29,0.24,0.53,0.53,0.53h2.34v3.71
				c0,0.86,0.7,1.56,1.56,1.56l0,0c0.86,0,1.56-0.7,1.56-1.56v-3.71h2.18v3.71c0,0.86,0.7,1.56,1.56,1.56l0,0
				c0.86,0,1.56-0.7,1.56-1.56v-3.71h2.37c0.29,0,0.53-0.24,0.53-0.53v-11C287.8,11.99,287.56,11.75,287.27,11.75z"/>
			<path class="st1" d="M271.4,11.75L271.4,11.75c-0.86,0-1.56,0.7-1.56,1.56v6.33c0,0.86,0.7,1.56,1.56,1.56l0,0
				c0.86,0,1.56-0.7,1.56-1.56v-6.33C272.96,12.45,272.26,11.75,271.4,11.75z"/>
			<path class="st1" d="M290.02,11.75L290.02,11.75c-0.86,0-1.56,0.7-1.56,1.56v6.33c0,0.86,0.7,1.56,1.56,1.56l0,0
				c0.86,0,1.56-0.7,1.56-1.56v-6.33C291.57,12.45,290.88,11.75,290.02,11.75z"/>
			<path class="st1" d="M274.26,10.98h12.87c0.34,0,0.59-0.31,0.52-0.64c-0.43-2.03-1.72-3.74-3.47-4.73l1.1-1.99
				c0.07-0.13,0.03-0.3-0.11-0.38c-0.13-0.07-0.3-0.03-0.38,0.11l-1.11,2c-0.91-0.42-1.92-0.66-2.99-0.66s-2.08,0.24-2.99,0.66
				l-1.11-2c-0.07-0.13-0.24-0.18-0.38-0.11c-0.13,0.07-0.18,0.24-0.11,0.38l1.1,1.99c-1.75,0.99-3.05,2.7-3.47,4.73
				C273.67,10.67,273.92,10.98,274.26,10.98z M284.54,8.02c0,0.33-0.27,0.6-0.6,0.6c-0.33,0-0.6-0.27-0.6-0.6
				c0-0.33,0.27-0.6,0.6-0.6C284.27,7.42,284.54,7.69,284.54,8.02z M277.45,7.42c0.33,0,0.6,0.27,0.6,0.6c0,0.33-0.27,0.6-0.6,0.6
				s-0.6-0.27-0.6-0.6C276.85,7.69,277.12,7.42,277.45,7.42z"/>
		</g>
	</g>
	<g>
		<path id="XMLID_2_" class="st0" d="M280.71,116.75L280.71,116.75c-12.83,0-23.23-10.4-23.23-23.23l0,0
			c0-12.83,10.4-23.23,23.23-23.23l0,0c12.83,0,23.23,10.4,23.23,23.23l0,0C303.94,106.35,293.54,116.75,280.71,116.75z"/>
		<path class="st1" d="M291,84.94c-2.21-2.01-5.18-2.47-7.94-1.23c-0.14,0.06-0.29,0.13-0.43,0.21l-1.92,0.99l-1.92-0.99
			c-0.14-0.07-0.29-0.14-0.43-0.21c-2.76-1.24-5.73-0.79-7.94,1.23c-2.28,2.08-3.17,5.35-2.21,8.14c0.46,1.34,1.35,2.53,2.58,3.46
			l9.92,7.47l9.92-7.47c1.23-0.93,2.12-2.12,2.58-3.46C294.17,90.29,293.28,87.02,291,84.94z"/>
	</g>
	<g>
		<path id="XMLID_00000111902094830482916160000012301840747891720329_" class="st3" d="M654.23,48.17L654.23,48.17
			c-12.83,0-23.23-10.4-23.23-23.23l0,0C631,12.1,641.4,1.7,654.23,1.7l0,0c12.83,0,23.23,10.4,23.23,23.23l0,0
			C677.46,37.77,667.06,48.17,654.23,48.17z"/>
	</g>
	<g>
		<path id="XMLID_00000181055356464140461100000004312965692812044419_" class="st3" d="M724.23,48.17L724.23,48.17
			c-12.83,0-23.23-10.4-23.23-23.23l0,0C701,12.1,711.4,1.7,724.23,1.7l0,0c12.83,0,23.23,10.4,23.23,23.23l0,0
			C747.46,37.77,737.06,48.17,724.23,48.17z"/>
	</g>
	<path id="XMLID_00000044869173090842351480000008704912193418584973_" class="st1" d="M651.09,37.39h5.01V24.83h3.5l0.37-4.2h-3.87
		c0,0,0-1.57,0-2.39c0-0.99,0.2-1.38,1.16-1.38c0.77,0,2.71,0,2.71,0v-4.36c0,0-2.86,0-3.47,0c-3.73,0-5.41,1.64-5.41,4.79
		c0,2.74,0,3.35,0,3.35h-2.61v4.26h2.61V37.39z"/>
	<g id="XMLID_00000059267392483337577330000013218410686889091735_">
		<path id="XMLID_00000047045017930672664480000015159715491551488907_" class="st1" d="M724.23,15.68c3.02,0,3.37,0.01,4.56,0.07
			c1.1,0.05,1.7,0.23,2.1,0.39c0.53,0.2,0.9,0.45,1.3,0.84c0.4,0.4,0.64,0.77,0.84,1.3c0.15,0.4,0.34,1,0.39,2.1
			c0.05,1.19,0.07,1.55,0.07,4.56c0,3.02-0.01,3.37-0.07,4.56c-0.05,1.1-0.23,1.7-0.39,2.1c-0.2,0.53-0.45,0.9-0.84,1.3
			c-0.4,0.4-0.77,0.64-1.3,0.84c-0.4,0.15-1,0.34-2.1,0.39c-1.19,0.05-1.55,0.07-4.56,0.07c-3.02,0-3.37-0.01-4.56-0.07
			c-1.1-0.05-1.7-0.23-2.1-0.39c-0.53-0.2-0.9-0.45-1.3-0.84c-0.4-0.4-0.64-0.77-0.84-1.3c-0.15-0.4-0.34-1-0.39-2.1
			c-0.05-1.19-0.07-1.55-0.07-4.56c0-3.02,0.01-3.37,0.07-4.56c0.05-1.1,0.23-1.7,0.39-2.1c0.21-0.53,0.45-0.9,0.84-1.3
			c0.4-0.4,0.77-0.64,1.3-0.84c0.4-0.15,1-0.34,2.1-0.39C720.86,15.69,721.22,15.68,724.23,15.68 M724.23,13.64
			c-3.07,0-3.45,0.01-4.66,0.07c-1.2,0.05-2.02,0.25-2.74,0.53c-0.74,0.29-1.37,0.67-2,1.3c-0.63,0.63-1.01,1.26-1.3,2
			c-0.28,0.72-0.47,1.54-0.52,2.74c-0.06,1.2-0.07,1.59-0.07,4.66s0.01,3.45,0.07,4.66c0.05,1.2,0.25,2.02,0.52,2.74
			c0.29,0.74,0.67,1.37,1.3,2c0.63,0.63,1.26,1.01,2,1.3c0.72,0.28,1.54,0.47,2.74,0.53c1.2,0.05,1.59,0.07,4.66,0.07
			c3.07,0,3.45-0.01,4.66-0.07c1.2-0.05,2.02-0.25,2.74-0.53c0.74-0.29,1.37-0.67,2-1.3c0.63-0.63,1.01-1.26,1.3-2
			c0.28-0.72,0.47-1.54,0.53-2.74c0.05-1.2,0.07-1.59,0.07-4.66s-0.01-3.45-0.07-4.66c-0.05-1.2-0.25-2.02-0.53-2.74
			c-0.29-0.74-0.67-1.37-1.3-2c-0.63-0.63-1.26-1.01-2-1.3c-0.72-0.28-1.54-0.47-2.74-0.53C727.68,13.65,727.3,13.64,724.23,13.64"
			/>
		<path id="XMLID_00000021084431479281238340000016877637970493553040_" class="st1" d="M724.23,19.14c-3.2,0-5.8,2.6-5.8,5.8
			s2.6,5.8,5.8,5.8c3.2,0,5.8-2.6,5.8-5.8S727.44,19.14,724.23,19.14 M724.23,28.7c-2.08,0-3.76-1.69-3.76-3.76
			c0-2.08,1.69-3.76,3.76-3.76c2.08,0,3.76,1.69,3.76,3.76C728,27.01,726.31,28.7,724.23,28.7"/>
		<path id="XMLID_00000160910261871051232620000007046343043850071697_" class="st1" d="M731.62,18.91c0,0.75-0.61,1.36-1.36,1.36
			c-0.75,0-1.36-0.61-1.36-1.36c0-0.75,0.61-1.36,1.36-1.36C731.01,17.55,731.62,18.16,731.62,18.91"/>
	</g>
</g>
<g id="DESIGNED_BY_FREEPIK">
	<g>
		<g id="XMLID_319_">
			<g id="XMLID_338_">
				<path id="XMLID_346_" class="st5" d="M369.34,318.91c-0.43,0.44-0.8,0.93-1.11,1.45l-0.47-0.24c-0.07-0.3-0.35-0.5-0.66-0.47
					c-0.33,0.04-0.57,0.34-0.53,0.67c0.04,0.33,0.34,0.57,0.67,0.53c0.07-0.01,0.13-0.03,0.18-0.05l0.45,0.23
					c-0.25,0.55-0.43,1.14-0.54,1.74l0.75,0.13c0.23-1.31,0.85-2.51,1.79-3.47L369.34,318.91z"/>
				<path id="XMLID_345_" class="st5" d="M374.82,316.61c-0.17,0-0.34,0.01-0.51,0.02l-0.07-0.63c0.19-0.15,0.3-0.39,0.27-0.64
					c-0.05-0.39-0.4-0.67-0.8-0.63c-0.39,0.05-0.67,0.4-0.63,0.8c0.03,0.25,0.19,0.46,0.4,0.56l0.07,0.62
					c-0.71,0.12-1.4,0.33-2.06,0.65l0.33,0.68c0.93-0.45,1.94-0.67,3-0.67c0.5,0,0.99,0.05,1.48,0.16l0.16-0.74
					C375.93,316.67,375.38,316.61,374.82,316.61z"/>
				<path id="XMLID_344_" class="st5" d="M381.43,319.16c0.33-0.04,0.57-0.34,0.53-0.67c-0.04-0.33-0.34-0.57-0.67-0.53
					c-0.31,0.04-0.54,0.3-0.53,0.61l-0.42,0.36c-0.42-0.43-0.89-0.81-1.41-1.14l-0.4,0.64c1.13,0.71,2.02,1.73,2.56,2.93l0.69-0.31
					c-0.25-0.55-0.57-1.07-0.94-1.55l0.4-0.35C381.3,319.16,381.36,319.16,381.43,319.16z"/>
				<path id="XMLID_343_" class="st5" d="M374.28,326.82c-0.39,0.02-0.77,0.03-1.16,0.03c-0.88,0-1.73-0.06-2.48-0.18
					c-0.39-0.06-0.85-0.15-1.27-0.29c1.05,1.86,3.07,3.12,5.39,3.12c2.86,0,5.26-1.92,5.95-4.5c-0.68,0.45-1.51,0.83-2.46,1.12
					C377.07,326.49,375.7,326.73,374.28,326.82z"/>
				<path id="XMLID_339_" class="st5" d="M374.82,318.13c-3.35,0-6.08,2.67-6.08,5.94c0,0.43,0.05,0.85,0.14,1.26
					c0.67,0.48,2.71,0.89,5.35,0.73c2.88-0.17,5.3-0.96,6.67-2.16c-0.01-0.2-0.02-0.39-0.05-0.58
					C380.48,320.36,377.88,318.13,374.82,318.13z M372.67,324.64c-1.02,0-1.85-0.83-1.85-1.85c0-1.02,0.83-1.85,1.85-1.85
					c1.02,0,1.85,0.83,1.85,1.85C374.52,323.81,373.69,324.64,372.67,324.64z M377.4,323.73c-0.75,0-1.36-0.61-1.36-1.36
					c0-0.75,0.61-1.36,1.36-1.36c0.75,0,1.36,0.61,1.36,1.36C378.76,323.12,378.15,323.73,377.4,323.73z"/>
			</g>
			<path id="XMLID_336_" class="st5" d="M390.83,319.99c-0.29-0.12-0.81-0.31-1.38-0.24c-0.55,0.07-0.84,0.34-0.84,1.01v0.87h2.23
				v1.72h-2.23v5.45h-1.93v-5.45h-1.34v-1.72h1.34v-0.89c0-1.68,0.9-2.78,2.57-2.78c0.64,0,1.16,0.12,1.59,0.31L390.83,319.99z"/>
			<path id="XMLID_334_" class="st5" d="M395.53,323.32c-0.18-0.03-0.36-0.05-0.53-0.05c-0.9,0-1.51,0.55-1.51,1.61v3.91h-1.93
				v-7.17h1.87v0.78c0.45-0.67,1.14-0.98,2.02-0.98c0.41,0,0.85,0.13,1.09,0.34L395.53,323.32z"/>
			<path id="XMLID_331_" class="st5" d="M403.2,325.2c0,0.22-0.01,0.49-0.04,0.65h-5.08c0.21,1.04,0.93,1.49,1.84,1.49
				c0.62,0,1.3-0.25,1.81-0.69l1.13,1.24c-0.81,0.75-1.85,1.09-3.06,1.09c-2.2,0-3.72-1.5-3.72-3.75c0-2.26,1.48-3.8,3.63-3.8
				C401.78,321.44,403.19,322.97,403.2,325.2z M398.08,324.54h3.18c-0.18-0.92-0.73-1.44-1.56-1.44
				C398.79,323.1,398.25,323.65,398.08,324.54z"/>
			<path id="XMLID_328_" class="st5" d="M410.85,325.2c0,0.22-0.02,0.49-0.04,0.65h-5.08c0.21,1.04,0.93,1.49,1.84,1.49
				c0.62,0,1.3-0.25,1.81-0.69l1.13,1.24c-0.81,0.75-1.85,1.09-3.06,1.09c-2.2,0-3.72-1.5-3.72-3.75c0-2.26,1.48-3.8,3.63-3.8
				C409.43,321.44,410.84,322.97,410.85,325.2z M405.74,324.54h3.18c-0.18-0.92-0.73-1.44-1.56-1.44
				C406.44,323.1,405.91,323.65,405.74,324.54z"/>
			<path id="XMLID_325_" class="st5" d="M419.2,325.21c0,2.15-1.5,3.77-3.47,3.77c-0.96,0-1.64-0.38-2.11-0.93v3.71h-1.92v-10.13
				h1.89v0.79c0.47-0.58,1.15-0.98,2.14-0.98C417.7,321.44,419.2,323.06,419.2,325.21z M413.52,325.21c0,1.13,0.75,1.98,1.84,1.98
				c1.14,0,1.85-0.88,1.85-1.98c0-1.1-0.71-1.98-1.85-1.98C414.27,323.23,413.52,324.08,413.52,325.21z"/>
			<path id="XMLID_322_" class="st5" d="M422.3,319.28c0,0.7-0.54,1.23-1.24,1.23c-0.7,0-1.23-0.53-1.23-1.23
				c0-0.7,0.53-1.24,1.23-1.24C421.76,318.04,422.3,318.59,422.3,319.28z M422.04,328.8h-1.93v-7.17h1.93V328.8z"/>
			<path id="XMLID_320_" class="st5" d="M425.27,324.18l2.7-2.55h2.37l-3.48,3.38l3.5,3.8h-2.38l-2.72-2.9v2.9h-1.93v-10.66h1.93
				V324.18z"/>
		</g>
		<g>
			<path class="st5" d="M293.65,328.73v-1.05c-0.53,0.72-1.39,1.23-2.39,1.23c-1.85,0-3.15-1.41-3.15-3.71
				c0-2.26,1.29-3.72,3.15-3.72c0.95,0,1.82,0.47,2.39,1.25v-3.76h1.1v9.77H293.65z M293.65,326.82v-3.21
				c-0.4-0.62-1.24-1.14-2.12-1.14c-1.42,0-2.27,1.17-2.27,2.74c0,1.57,0.85,2.72,2.27,2.72
				C292.4,327.93,293.25,327.43,293.65,326.82z"/>
			<path class="st5" d="M296.16,325.19c0-2.05,1.46-3.71,3.49-3.71c2.14,0,3.4,1.67,3.4,3.79v0.28h-5.73
				c0.09,1.33,1.03,2.45,2.55,2.45c0.81,0,1.63-0.32,2.18-0.89l0.53,0.72c-0.7,0.7-1.65,1.08-2.81,1.08
				C297.67,328.91,296.16,327.4,296.16,325.19z M299.64,322.39c-1.51,0-2.26,1.27-2.31,2.36h4.64
				C301.95,323.7,301.25,322.39,299.64,322.39z"/>
			<path class="st5" d="M303.84,327.8l0.57-0.79c0.47,0.54,1.36,1.01,2.33,1.01c1.08,0,1.67-0.51,1.67-1.22
				c0-1.71-4.38-0.66-4.38-3.28c0-1.1,0.95-2.04,2.64-2.04c1.2,0,2.05,0.45,2.62,1.03l-0.51,0.76c-0.42-0.51-1.2-0.89-2.11-0.89
				c-0.97,0-1.57,0.48-1.57,1.11c0,1.55,4.38,0.53,4.38,3.28c0,1.19-0.95,2.14-2.78,2.14C305.54,328.91,304.56,328.56,303.84,327.8z
				"/>
			<path class="st5" d="M310.71,319.92c0-0.41,0.34-0.75,0.73-0.75c0.41,0,0.75,0.34,0.75,0.75c0,0.41-0.34,0.73-0.75,0.73
				C311.05,320.65,310.71,320.33,310.71,319.92z M310.9,328.73v-7.07h1.1v7.07H310.9z"/>
			<path class="st5" d="M313.81,330.55l0.56-0.82c0.59,0.7,1.29,0.97,2.3,0.97c1.17,0,2.27-0.57,2.27-2.12v-1.01
				c-0.51,0.72-1.38,1.26-2.37,1.26c-1.85,0-3.15-1.38-3.15-3.66c0-2.27,1.29-3.68,3.15-3.68c0.95,0,1.8,0.47,2.37,1.25v-1.07h1.1
				v6.87c0,2.34-1.64,3.08-3.37,3.08C315.47,331.61,314.65,331.37,313.81,330.55z M318.94,326.7v-3.09
				c-0.38-0.62-1.23-1.14-2.11-1.14c-1.42,0-2.27,1.13-2.27,2.7c0,1.55,0.85,2.7,2.27,2.7C317.71,327.86,318.56,327.31,318.94,326.7
				z"/>
			<path class="st5" d="M326.65,328.73v-4.63c0-1.24-0.63-1.64-1.58-1.64c-0.86,0-1.68,0.53-2.09,1.1v5.17h-1.1v-7.07h1.1v1.03
				c0.5-0.59,1.46-1.2,2.52-1.2c1.48,0,2.26,0.75,2.26,2.29v4.97H326.65z"/>
			<path class="st5" d="M329.17,325.19c0-2.05,1.46-3.71,3.49-3.71c2.14,0,3.4,1.67,3.4,3.79v0.28h-5.73
				c0.09,1.33,1.03,2.45,2.55,2.45c0.81,0,1.63-0.32,2.18-0.89l0.53,0.72c-0.7,0.7-1.66,1.08-2.81,1.08
				C330.67,328.91,329.17,327.4,329.17,325.19z M332.64,322.39c-1.51,0-2.26,1.27-2.31,2.36h4.64
				C334.95,323.7,334.25,322.39,332.64,322.39z"/>
			<path class="st5" d="M342.58,328.73v-1.05c-0.53,0.72-1.39,1.23-2.39,1.23c-1.85,0-3.15-1.41-3.15-3.71
				c0-2.26,1.29-3.72,3.15-3.72c0.95,0,1.82,0.47,2.39,1.25v-3.76h1.1v9.77H342.58z M342.58,326.82v-3.21
				c-0.4-0.62-1.25-1.14-2.12-1.14c-1.42,0-2.27,1.17-2.27,2.74c0,1.57,0.85,2.72,2.27,2.72
				C341.34,327.93,342.19,327.43,342.58,326.82z"/>
			<path class="st5" d="M348.92,328.73v-9.77h1.1v3.76c0.57-0.78,1.42-1.25,2.39-1.25c1.85,0,3.15,1.46,3.15,3.72
				c0,2.3-1.3,3.71-3.15,3.71c-1,0-1.86-0.51-2.39-1.23v1.05H348.92z M352.13,327.93c1.44,0,2.29-1.16,2.29-2.72
				c0-1.57-0.85-2.74-2.29-2.74c-0.86,0-1.73,0.53-2.11,1.14v3.21C350.4,327.43,351.27,327.93,352.13,327.93z"/>
			<path class="st5" d="M356.76,330.51c0.16,0.07,0.42,0.12,0.6,0.12c0.48,0,0.81-0.16,1.05-0.75l0.47-1.07l-2.96-7.15h1.19
				l2.36,5.8l2.34-5.8h1.2l-3.54,8.51c-0.42,1.03-1.14,1.42-2.08,1.44c-0.23,0-0.6-0.04-0.81-0.1L356.76,330.51z"/>
		</g>
	</g>
</g>
</svg>
