<?xml version="1.0" encoding="utf-8"?>
<!-- Generator: Adobe Illustrator 25.3.1, SVG Export Plug-In . SVG Version: 6.00 Build 0)  -->
<svg version="1.1" id="Layer_1" xmlns="http://www.w3.org/2000/svg" xmlns:xlink="http://www.w3.org/1999/xlink" x="0px" y="0px"
	 viewBox="0 0 289.7 92.8" style="enable-background:new 0 0 289.7 92.8;" xml:space="preserve">
<style type="text/css">
	.st0{fill:#9C9B9B;}
	.st1{fill:#38383D;}
</style>
<path class="st0" d="M220.6,88.5c-0.1,0-0.2-0.1-0.2-0.2v-16c0-0.1,0.1-0.2,0.2-0.2h1.5c0.1,0,0.2,0.1,0.2,0.2v5.9l0,0
	c0.6-0.9,1.5-1.6,3.3-1.6c2,0,3.4,0.9,4,2.8c0.3,0.9,0.4,1.8,0.4,3.3s-0.1,2.4-0.4,3.3c-0.6,1.8-2,2.8-4,2.8c-1.7,0-2.7-0.7-3.3-1.6
	l0,0v1.1c0,0.1-0.1,0.2-0.2,0.2L220.6,88.5L220.6,88.5z M227.7,85.1c0.2-0.6,0.3-1.4,0.3-2.4s-0.1-1.8-0.3-2.4
	c-0.4-1.1-1.3-1.7-2.5-1.7c-1.3,0-2.2,0.6-2.6,1.7c-0.2,0.6-0.3,1.3-0.3,2.4c0,1.2,0.1,1.9,0.3,2.4c0.4,1.2,1.3,1.8,2.6,1.8
	S227.4,86.2,227.7,85.1 M232.9,92.8c-0.1,0-0.2-0.1-0.2-0.2v-1.4c0-0.2,0.1-0.2,0.2-0.2h0.4c0.9,0,1.5-0.4,2-1.7l0.4-1.1l-4.2-11
	c-0.1-0.1,0-0.2,0.2-0.2h1.7c0.2,0,0.2,0.1,0.3,0.2l3,8.3l0,0l2.9-8.3c0.1-0.2,0.1-0.2,0.3-0.2h1.6c0.2,0,0.2,0.1,0.2,0.2l-4.6,12.2
	c-1,2.7-1.9,3.4-3.6,3.4C233.5,92.8,232.9,92.8,232.9,92.8z M249,84.9c-0.3-0.9-0.4-1.9-0.4-4.6s0.1-3.7,0.4-4.6
	c0.8-2.5,2.8-3.8,5.6-3.8c2.8,0,4.7,1.3,5.6,3.8c0.3,0.9,0.4,1.9,0.4,4.6s-0.1,3.7-0.4,4.6c-0.9,2.5-2.8,3.8-5.6,3.8
	C251.8,88.8,249.8,87.5,249,84.9 M258.1,84.3c0.2-0.6,0.4-1.7,0.4-4c0-2.4-0.2-3.4-0.4-4c-0.5-1.6-1.7-2.4-3.5-2.4
	c-1.8,0-3,0.9-3.5,2.4c-0.2,0.6-0.4,1.7-0.4,4c0,2.4,0.2,3.4,0.4,4c0.5,1.6,1.7,2.4,3.5,2.4C256.4,86.8,257.6,85.9,258.1,84.3
	 M267.2,88.5c-0.1,0-0.2-0.1-0.2-0.2v-14c0-0.1,0-0.1-0.1-0.1h-4.5c-0.1,0-0.2-0.1-0.2-0.2v-1.5c0-0.1,0.1-0.2,0.2-0.2h11.4
	c0.1,0,0.2,0.1,0.2,0.2V74c0,0.1-0.1,0.2-0.2,0.2h-4.5c-0.1,0-0.1,0.1-0.1,0.1v14c0,0.1-0.1,0.2-0.2,0.2H267.2z M276.8,88.5
	c-0.1,0-0.2-0.1-0.2-0.2v-16c0-0.1,0.1-0.2,0.2-0.2h5.8c3.2,0,5.2,1.9,5.2,4.9s-2.1,4.9-5.2,4.9h-3.8c-0.1,0-0.1,0-0.1,0.1v6.2
	c0,0.1-0.1,0.2-0.2,0.2h-1.7V88.5z M285.7,77c0-1.8-1.2-2.9-3.2-2.9h-3.7c-0.1,0-0.1,0.1-0.1,0.1v5.5c0,0.1,0,0.1,0.1,0.1h3.7
	C284.5,79.9,285.7,78.8,285.7,77"/>
<path class="st1" d="M110,32.4c-1.9,0-5.8-3-9.1-3c-1.8,0-3.5,0.9-3.5,2.8c0,4.8,17.7,4,17.7,15.7c0,6.8-5.7,12-14.5,12
	c-5.7,0-14.2-3.3-14.2-7.9c0-1.6,1.6-4.5,4.4-4.5c4,0,5.7,3.5,10.6,3.5c3.1,0,4-1,4-2.9c0-4.7-17.7-4-17.7-15.7
	c0-7.1,5.7-11.9,13.8-11.9c5,0,12.8,2.3,12.8,7.4C114.2,30.2,112.4,32.4,110,32.4 M130.9,11.7c0,2.9-2.3,5.4-5.3,5.4
	c-2.8,0-5.3-2.5-5.3-5.4c0-2.7,2.5-5.1,5.3-5.1C128.4,6.6,130.9,9,130.9,11.7 M120.5,26.6c0-3.4,2.1-5.7,5.1-5.7
	c3,0,5.1,2.3,5.1,5.7v27.2c0,3.4-2.1,5.7-5.1,5.7c-3,0-5.1-2.3-5.1-5.7V26.6z M136.2,26.6c0-3.4,2.1-5.7,5.1-5.7
	c2.6,0,4.3,1.4,4.7,3.8c2.5-2.7,5.7-4.3,9.5-4.3c4.3,0,7.9,1.8,10.6,5.2c2.8-3.3,7.3-5.2,10.8-5.2c8.3,0,14,4.8,14,13.7v19.6
	c0,3.4-2.1,5.7-5.1,5.7s-5.1-2.3-5.1-5.7V36c0-4.1-2.3-7-6-7c-3.8,0-6,2.9-6,7v17.8c0,3.4-2.1,5.7-5.1,5.7s-5.1-2.3-5.1-5.7V36
	c0-4.1-2.3-7-6-7c-4.2,0-6,2.9-6,7v17.8c0,3.4-2.1,5.7-5.1,5.7s-5.1-2.3-5.1-5.7V26.6H136.2z M196.1,26.6c0-3.4,2.1-5.7,5.1-5.7
	c2.8,0,4.5,1.6,5.1,4.3c1.9-3.1,5.9-4.7,9.7-4.7c11,0,16.4,10.3,16.4,20.2c0,9.6-6.5,19.2-16.8,19.2c-3.2,0-6.7-1.2-9.4-3.5v12.5
	c0,3.4-2.1,5.7-5.1,5.7s-5.1-2.3-5.1-5.7V26.6H196.1z M214.3,50.5c5.3,0,7.9-5.5,7.9-10.3s-2.6-10.4-7.9-10.4c-5.5,0-8,5.1-8,10.1
	S208.7,50.5,214.3,50.5 M237.7,10.1c0-3.4,2.1-5.7,5.1-5.7s5.1,2.3,5.1,5.7v43.7c0,3.4-2.1,5.7-5.1,5.7s-5.1-2.3-5.1-5.7V10.1z
	 M263.5,43.6c0.7,5,4.9,7.4,9.6,7.4c5.2,0,8.9-4.1,11.5-4.1c2.2,0,4.2,2.2,4.2,4.4c0,4.4-9.1,8.6-16.7,8.6
	c-11.5,0-19.1-8.4-19.1-19.6c0-10.3,7.5-19.8,18.3-19.8c11,0,18.4,10.1,18.4,18.6c0,3-1.4,4.5-4.5,4.5
	C285.2,43.6,263.5,43.6,263.5,43.6z M279.5,36.8c-0.6-4.5-3.4-7.8-8.1-7.8c-4.5,0-7.6,3.5-8.1,7.8H279.5z"/>
<path class="st1" d="M26,29.8c0,3.8,3,6.8,6.8,6.8s6.8-3.1,6.8-6.8c0-3.8-3-6.8-6.8-6.8S26,26,26,29.8 M67.8,21.3L67.8,21.3
	L67.8,21.3 M38.8,0c-5.7,0-11,1.2-15.9,3.4C9.4,9.5,0,23,0,38.8c0,21.4,17.4,38.8,38.8,38.8c7.4,0,14.4-2.1,20.3-5.7
	c10.1-6.2,17.2-17,18.3-29.5c0.1-0.7,0.2-2.8,0.3-3.2c0-0.1,0-0.2,0-0.3c0-0.2,0-0.5,0-0.7c0-0.1,0-0.2,0-0.3c0-0.3,0-0.5,0-0.8
	c0-0.1,0-0.2,0-0.3c0-0.3,0-0.7-0.1-1l0,0c0-0.3-0.1-0.7-0.1-1c0-0.1,0-0.2,0-0.3c0-0.3-0.1-0.5-0.1-0.8c0-0.1,0-0.2,0-0.3
	c-0.1-0.3-0.1-0.5-0.2-0.8c0-0.1,0-0.1,0-0.2c-0.1-0.4-0.1-0.6-0.2-0.9s-0.1-0.5-0.3-0.9c-1.5-4-4.2-7.3-7.7-8.9
	c-0.1,0-0.1-0.1-0.2-0.1c0,0-0.1,0-0.1-0.1c-0.1,0-0.2-0.1-0.2-0.1c-0.1-0.1-0.3-0.1-0.4-0.2c0,0,0,0-0.1,0l0,0
	c-0.9-0.3-1.8-0.6-2.7-0.7c-1-0.1-1.9-0.1-2.8-0.1h0.1c-0.1,0-0.1,0-0.2,0c-0.1,0-0.2,0-0.2,0c-0.2,0-0.5,0.1-0.7,0.1
	c-2.2,0.4-4.4,1.4-6.3,2.8l0.1-0.1c0,0-1.7,1.2-3.6,4.4c-1.1,1.8-2.2,4.2-3.1,7.4c-0.1,0.3-0.1,0.5-0.2,0.7l0,0
	c-0.6,2.2-1.4,3.9-2.2,5.2c-1,1.8-2.1,3.1-3.6,4.4c-3.1,2.9-7,4.5-11.1,4.4c-0.6,0-1.3-0.1-1.9-0.2C20.6,48,14.9,38,16.7,27.3
	c0-0.1,0-0.2,0.1-0.3c1-5.7,3.9-10.4,7.8-13.4c1.7-1.3,3.5-2.2,5.5-2.7c0.6-0.2,1.3-0.3,1.9-0.4c0.8-0.1,1.7-0.2,2.6-0.1
	c0.2,0,0.3,0,0.5,0c1,0.1,2.2,0.3,3.5,0.7c0.6,0.2,1.3,0.5,2,0.8c2.7,1.3,4.5,2.2,6.1,2.8l0,0l0,0c0.2,0.1,0.5,0.2,0.7,0.2
	c0,0,0,0,0.1,0c3.8,1,7.6-0.6,8.8-3.8C57.1,9,56.5,6.7,55,4.9c-0.5-0.6-1.2-1.2-1.9-1.7c-1.1-0.1-2-0.7-3.2-1.2
	c-3.7-1.6-7.3-1.7-8.9-1.9C40.3,0,39.5,0,38.8,0z"/>
</svg>
